<svg width="246" height="344" viewBox="0 0 246 344" fill="none" xmlns="http://www.w3.org/2000/svg">
<path fill-rule="evenodd" clip-rule="evenodd" d="M85.5473 103.973C84.4371 102.579 82.6482 101.843 80.8304 102.032C79.0126 102.222 77.4303 103.31 76.6579 104.9L31.6142 191.345C30.7799 192.947 30.869 194.849 31.8499 196.372C32.8307 197.896 34.5634 198.823 36.4291 198.823H99.1503C101.203 198.869 103.09 197.749 103.965 195.967C117.495 169.131 109.295 128.328 85.5473 103.973Z" fill="url(#paint0_linear)"/>
<path fill-rule="evenodd" clip-rule="evenodd" d="M118.584 25.3488C95.7508 59.0718 93.1155 101.847 111.649 137.918L141.887 195.967C142.799 197.718 144.663 198.824 146.702 198.824H209.412C211.278 198.824 213.011 197.897 213.991 196.373C214.972 194.85 215.061 192.948 214.227 191.346C214.227 191.346 129.861 29.3678 127.741 25.3164C126.886 23.6336 125.103 22.5688 123.152 22.5757C121.201 22.5826 119.427 23.66 118.584 25.3488Z" fill="url(#paint1_linear)"/>
<path d="M63.1821 276.544L59.6071 267.509H41.7971L38.4171 276.544H26.3271L45.6321 230.524H56.4221L75.5321 276.544H63.1821ZM50.8321 242.809L44.9821 258.604H56.5521L50.8321 242.809ZM97.7956 253.729C96.9289 252.906 95.9106 252.213 94.7406 251.649C93.5706 251.086 92.3356 250.804 91.0356 250.804C90.0389 250.804 89.1072 250.999 88.2406 251.389C87.4172 251.779 87.0056 252.451 87.0056 253.404C87.0056 254.314 87.4606 254.964 88.3706 255.354C89.3239 255.744 90.8406 256.178 92.9206 256.654C94.1339 256.914 95.3472 257.283 96.5606 257.759C97.8172 258.236 98.9439 258.864 99.9406 259.644C100.937 260.424 101.739 261.378 102.346 262.504C102.952 263.631 103.256 264.974 103.256 266.534C103.256 268.571 102.844 270.304 102.021 271.734C101.197 273.121 100.114 274.248 98.7706 275.114C97.4706 275.981 95.9972 276.609 94.3506 276.999C92.7039 277.389 91.0572 277.584 89.4106 277.584C86.7672 277.584 84.1672 277.173 81.6106 276.349C79.0972 275.483 76.9956 274.226 75.3056 272.579L81.2856 266.274C82.2389 267.314 83.4089 268.181 84.7956 268.874C86.1822 269.568 87.6556 269.914 89.2156 269.914C90.0822 269.914 90.9272 269.719 91.7506 269.329C92.6172 268.896 93.0506 268.159 93.0506 267.119C93.0506 266.123 92.5306 265.386 91.4906 264.909C90.4506 264.433 88.8256 263.934 86.6156 263.414C85.4889 263.154 84.3622 262.808 83.2356 262.374C82.1089 261.941 81.0906 261.356 80.1806 260.619C79.3139 259.883 78.5989 258.973 78.0356 257.889C77.4722 256.806 77.1906 255.506 77.1906 253.989C77.1906 252.039 77.6022 250.393 78.4256 249.049C79.2489 247.663 80.3106 246.536 81.6106 245.669C82.9106 244.803 84.3406 244.174 85.9006 243.784C87.5039 243.351 89.0856 243.134 90.6456 243.134C93.0722 243.134 95.4339 243.524 97.7306 244.304C100.071 245.041 102.042 246.168 103.646 247.684L97.7956 253.729ZM128.455 253.729C127.588 252.906 126.57 252.213 125.4 251.649C124.23 251.086 122.995 250.804 121.695 250.804C120.698 250.804 119.766 250.999 118.9 251.389C118.076 251.779 117.665 252.451 117.665 253.404C117.665 254.314 118.12 254.964 119.03 255.354C119.983 255.744 121.5 256.178 123.58 256.654C124.793 256.914 126.006 257.283 127.22 257.759C128.476 258.236 129.603 258.864 130.6 259.644C131.596 260.424 132.398 261.378 133.005 262.504C133.611 263.631 133.915 264.974 133.915 266.534C133.915 268.571 133.503 270.304 132.68 271.734C131.856 273.121 130.773 274.248 129.43 275.114C128.13 275.981 126.656 276.609 125.01 276.999C123.363 277.389 121.716 277.584 120.07 277.584C117.426 277.584 114.826 277.173 112.27 276.349C109.756 275.483 107.655 274.226 105.965 272.579L111.945 266.274C112.898 267.314 114.068 268.181 115.455 268.874C116.841 269.568 118.315 269.914 119.875 269.914C120.741 269.914 121.586 269.719 122.41 269.329C123.276 268.896 123.71 268.159 123.71 267.119C123.71 266.123 123.19 265.386 122.15 264.909C121.11 264.433 119.485 263.934 117.275 263.414C116.148 263.154 115.021 262.808 113.895 262.374C112.768 261.941 111.75 261.356 110.84 260.619C109.973 259.883 109.258 258.973 108.695 257.889C108.131 256.806 107.85 255.506 107.85 253.989C107.85 252.039 108.261 250.393 109.085 249.049C109.908 247.663 110.97 246.536 112.27 245.669C113.57 244.803 115 244.174 116.56 243.784C118.163 243.351 119.745 243.134 121.305 243.134C123.731 243.134 126.093 243.524 128.39 244.304C130.73 245.041 132.701 246.168 134.305 247.684L128.455 253.729ZM151.639 233.839C151.639 234.663 151.466 235.443 151.119 236.179C150.816 236.873 150.382 237.479 149.819 237.999C149.299 238.519 148.649 238.931 147.869 239.234C147.132 239.538 146.352 239.689 145.529 239.689C143.796 239.689 142.344 239.126 141.174 237.999C140.004 236.829 139.419 235.443 139.419 233.839C139.419 233.059 139.571 232.323 139.874 231.629C140.177 230.893 140.611 230.264 141.174 229.744C141.737 229.224 142.387 228.813 143.124 228.509C143.861 228.163 144.662 227.989 145.529 227.989C146.352 227.989 147.132 228.141 147.869 228.444C148.649 228.748 149.299 229.159 149.819 229.679C150.382 230.199 150.816 230.828 151.119 231.564C151.466 232.258 151.639 233.016 151.639 233.839ZM140.199 276.544V244.174H150.859V276.544H140.199ZM178.347 253.729C177.481 252.906 176.462 252.213 175.292 251.649C174.122 251.086 172.887 250.804 171.587 250.804C170.591 250.804 169.659 250.999 168.792 251.389C167.969 251.779 167.557 252.451 167.557 253.404C167.557 254.314 168.012 254.964 168.922 255.354C169.876 255.744 171.392 256.178 173.472 256.654C174.686 256.914 175.899 257.283 177.112 257.759C178.369 258.236 179.496 258.864 180.492 259.644C181.489 260.424 182.291 261.378 182.897 262.504C183.504 263.631 183.807 264.974 183.807 266.534C183.807 268.571 183.396 270.304 182.572 271.734C181.749 273.121 180.666 274.248 179.322 275.114C178.022 275.981 176.549 276.609 174.902 276.999C173.256 277.389 171.609 277.584 169.962 277.584C167.319 277.584 164.719 277.173 162.162 276.349C159.649 275.483 157.547 274.226 155.857 272.579L161.837 266.274C162.791 267.314 163.961 268.181 165.347 268.874C166.734 269.568 168.207 269.914 169.767 269.914C170.634 269.914 171.479 269.719 172.302 269.329C173.169 268.896 173.602 268.159 173.602 267.119C173.602 266.123 173.082 265.386 172.042 264.909C171.002 264.433 169.377 263.934 167.167 263.414C166.041 263.154 164.914 262.808 163.787 262.374C162.661 261.941 161.642 261.356 160.732 260.619C159.866 259.883 159.151 258.973 158.587 257.889C158.024 256.806 157.742 255.506 157.742 253.989C157.742 252.039 158.154 250.393 158.977 249.049C159.801 247.663 160.862 246.536 162.162 245.669C163.462 244.803 164.892 244.174 166.452 243.784C168.056 243.351 169.637 243.134 171.197 243.134C173.624 243.134 175.986 243.524 178.282 244.304C180.622 245.041 182.594 246.168 184.197 247.684L178.347 253.729ZM201.532 252.169V264.519C201.532 266.036 201.813 267.184 202.377 267.964C202.983 268.701 204.045 269.069 205.562 269.069C206.082 269.069 206.623 269.026 207.187 268.939C207.793 268.853 208.292 268.723 208.682 268.549L208.812 276.349C208.075 276.609 207.143 276.826 206.017 276.999C204.89 277.216 203.763 277.324 202.637 277.324C200.47 277.324 198.65 277.064 197.177 276.544C195.703 275.981 194.512 275.201 193.602 274.204C192.735 273.164 192.107 271.951 191.717 270.564C191.327 269.134 191.132 267.553 191.132 265.819V252.169H185.932V244.174H191.067V235.659H201.532V244.174H209.137V252.169H201.532Z" fill="white"/>
<path d="M58.4676 308.632C58.2676 308.246 57.961 307.932 57.5476 307.692C57.1476 307.439 56.6876 307.312 56.1676 307.312C55.9276 307.312 55.6876 307.339 55.4476 307.392C55.2076 307.446 54.9943 307.532 54.8076 307.652C54.621 307.772 54.4676 307.926 54.3476 308.112C54.241 308.299 54.1876 308.519 54.1876 308.772C54.1876 309.212 54.3676 309.552 54.7276 309.792C55.0876 310.019 55.6543 310.212 56.4276 310.372C57.5343 310.599 58.3476 310.932 58.8676 311.372C59.401 311.799 59.6676 312.379 59.6676 313.112C59.6676 313.646 59.561 314.099 59.3476 314.472C59.1476 314.832 58.881 315.132 58.5476 315.372C58.2143 315.599 57.8343 315.759 57.4076 315.852C56.9943 315.959 56.5743 316.012 56.1476 316.012C55.441 316.012 54.7543 315.866 54.0876 315.572C53.421 315.279 52.8743 314.819 52.4476 314.192L53.5276 313.392C53.7676 313.806 54.121 314.152 54.5876 314.432C55.0543 314.712 55.5676 314.852 56.1276 314.852C56.421 314.852 56.701 314.826 56.9676 314.772C57.2343 314.719 57.4676 314.626 57.6676 314.492C57.8676 314.359 58.0276 314.192 58.1476 313.992C58.2676 313.779 58.3276 313.519 58.3276 313.212C58.3276 312.719 58.0876 312.352 57.6076 312.112C57.141 311.859 56.461 311.626 55.5676 311.412C55.2876 311.346 54.9876 311.266 54.6676 311.172C54.361 311.066 54.0743 310.919 53.8076 310.732C53.541 310.532 53.321 310.286 53.1476 309.992C52.9743 309.699 52.8876 309.332 52.8876 308.892C52.8876 308.412 52.981 308.006 53.1676 307.672C53.3543 307.326 53.601 307.046 53.9076 306.832C54.2276 306.606 54.5876 306.439 54.9876 306.332C55.3876 306.226 55.801 306.172 56.2276 306.172C56.881 306.172 57.5143 306.319 58.1276 306.612C58.741 306.906 59.201 307.319 59.5076 307.852L58.4676 308.632ZM71.6743 311.092C71.6743 311.799 71.5477 312.452 71.2943 313.052C71.0543 313.652 70.7143 314.172 70.2743 314.612C69.8343 315.052 69.3077 315.399 68.6943 315.652C68.081 315.892 67.4077 316.012 66.6743 316.012C65.9543 316.012 65.2877 315.892 64.6743 315.652C64.061 315.399 63.5343 315.052 63.0943 314.612C62.6543 314.172 62.3077 313.652 62.0543 313.052C61.8143 312.452 61.6943 311.799 61.6943 311.092C61.6943 310.386 61.8143 309.732 62.0543 309.132C62.3077 308.532 62.6543 308.012 63.0943 307.572C63.5343 307.132 64.061 306.792 64.6743 306.552C65.2877 306.299 65.9543 306.172 66.6743 306.172C67.4077 306.172 68.081 306.299 68.6943 306.552C69.3077 306.792 69.8343 307.132 70.2743 307.572C70.7143 308.012 71.0543 308.532 71.2943 309.132C71.5477 309.732 71.6743 310.386 71.6743 311.092ZM70.2343 311.092C70.2343 310.572 70.1477 310.086 69.9743 309.632C69.8143 309.166 69.581 308.766 69.2743 308.432C68.9677 308.086 68.5943 307.812 68.1543 307.612C67.7143 307.412 67.221 307.312 66.6743 307.312C66.1277 307.312 65.6343 307.412 65.1943 307.612C64.7677 307.812 64.401 308.086 64.0943 308.432C63.7877 308.766 63.5477 309.166 63.3743 309.632C63.2143 310.086 63.1343 310.572 63.1343 311.092C63.1343 311.612 63.2143 312.106 63.3743 312.572C63.5477 313.026 63.7877 313.426 64.0943 313.772C64.401 314.106 64.7677 314.372 65.1943 314.572C65.6343 314.759 66.1277 314.852 66.6743 314.852C67.221 314.852 67.7143 314.759 68.1543 314.572C68.5943 314.372 68.9677 314.106 69.2743 313.772C69.581 313.426 69.8143 313.026 69.9743 312.572C70.1477 312.106 70.2343 311.612 70.2343 311.092ZM81.4009 315.772C81.3742 315.519 81.3542 315.239 81.3409 314.932C81.3276 314.626 81.3209 314.372 81.3209 314.172H81.2809C81.0142 314.719 80.5809 315.166 79.9809 315.512C79.3809 315.846 78.7476 316.012 78.0809 316.012C76.8942 316.012 76.0009 315.659 75.4009 314.952C74.8142 314.246 74.5209 313.312 74.5209 312.152V306.412H75.8809V311.592C75.8809 312.086 75.9209 312.532 76.0009 312.932C76.0809 313.332 76.2142 313.679 76.4009 313.972C76.6009 314.252 76.8609 314.472 77.1809 314.632C77.5142 314.792 77.9276 314.872 78.4209 314.872C78.7809 314.872 79.1276 314.799 79.4609 314.652C79.8076 314.506 80.1142 314.286 80.3809 313.992C80.6476 313.686 80.8609 313.306 81.0209 312.852C81.1809 312.386 81.2609 311.839 81.2609 311.212V306.412H82.6209V313.712C82.6209 313.966 82.6276 314.292 82.6409 314.692C82.6542 315.092 82.6742 315.452 82.7009 315.772H81.4009ZM86.222 308.472C86.222 308.219 86.2153 307.892 86.202 307.492C86.1887 307.092 86.1687 306.732 86.142 306.412H87.442C87.4687 306.666 87.4887 306.946 87.502 307.252C87.5153 307.559 87.522 307.812 87.522 308.012H87.562C87.8287 307.466 88.2287 307.026 88.762 306.692C89.2953 306.346 89.8953 306.172 90.562 306.172C90.7353 306.172 90.8887 306.179 91.022 306.192C91.1687 306.206 91.3153 306.232 91.462 306.272L91.282 307.552C91.202 307.526 91.0687 307.499 90.882 307.472C90.6953 307.446 90.5087 307.432 90.322 307.432C89.962 307.432 89.6153 307.499 89.282 307.632C88.9487 307.766 88.6553 307.979 88.402 308.272C88.162 308.552 87.962 308.919 87.802 309.372C87.6553 309.812 87.582 310.346 87.582 310.972V315.772H86.222V308.472ZM99.8175 308.552C99.5908 308.192 99.2575 307.899 98.8175 307.672C98.3908 307.432 97.9241 307.312 97.4175 307.312C96.8708 307.312 96.3775 307.412 95.9375 307.612C95.4975 307.799 95.1175 308.066 94.7975 308.412C94.4908 308.746 94.2508 309.146 94.0775 309.612C93.9175 310.066 93.8375 310.559 93.8375 311.092C93.8375 311.626 93.9175 312.119 94.0775 312.572C94.2508 313.026 94.4908 313.426 94.7975 313.772C95.1041 314.106 95.4775 314.372 95.9175 314.572C96.3575 314.759 96.8508 314.852 97.3975 314.852C97.9975 314.852 98.5041 314.739 98.9175 314.512C99.3308 314.286 99.6708 313.992 99.9375 313.632L100.957 314.392C100.557 314.886 100.064 315.279 99.4775 315.572C98.9041 315.866 98.2108 316.012 97.3975 316.012C96.6375 316.012 95.9508 315.892 95.3375 315.652C94.7241 315.399 94.1975 315.052 93.7575 314.612C93.3308 314.172 92.9975 313.652 92.7575 313.052C92.5175 312.452 92.3975 311.799 92.3975 311.092C92.3975 310.386 92.5175 309.732 92.7575 309.132C92.9975 308.532 93.3308 308.012 93.7575 307.572C94.1975 307.132 94.7241 306.792 95.3375 306.552C95.9508 306.299 96.6375 306.172 97.3975 306.172C98.0241 306.172 98.6575 306.312 99.2975 306.592C99.9508 306.859 100.477 307.259 100.877 307.792L99.8175 308.552ZM104.457 315.772H103.097V306.412H104.457V315.772ZM104.737 302.812C104.737 303.092 104.637 303.326 104.437 303.512C104.237 303.686 104.017 303.772 103.777 303.772C103.537 303.772 103.317 303.686 103.117 303.512C102.917 303.326 102.817 303.092 102.817 302.812C102.817 302.532 102.917 302.306 103.117 302.132C103.317 301.946 103.537 301.852 103.777 301.852C104.017 301.852 104.237 301.946 104.437 302.132C104.637 302.306 104.737 302.532 104.737 302.812ZM109.297 306.412C109.324 306.666 109.344 306.946 109.357 307.252C109.371 307.559 109.377 307.812 109.377 308.012H109.417C109.684 307.466 110.117 307.026 110.717 306.692C111.317 306.346 111.951 306.172 112.617 306.172C113.804 306.172 114.691 306.526 115.277 307.232C115.877 307.939 116.177 308.872 116.177 310.032V315.772H114.817V310.592C114.817 310.099 114.777 309.652 114.697 309.252C114.617 308.852 114.477 308.512 114.277 308.232C114.091 307.939 113.831 307.712 113.497 307.552C113.177 307.392 112.771 307.312 112.277 307.312C111.917 307.312 111.564 307.386 111.217 307.532C110.884 307.679 110.584 307.906 110.317 308.212C110.051 308.506 109.837 308.886 109.677 309.352C109.517 309.806 109.437 310.346 109.437 310.972V315.772H108.077V308.472C108.077 308.219 108.071 307.892 108.057 307.492C108.044 307.092 108.024 306.732 107.997 306.412H109.297ZM120.199 317.652C120.572 318.132 121.079 318.539 121.719 318.872C122.372 319.206 123.059 319.372 123.779 319.372C124.445 319.372 125.012 319.272 125.479 319.072C125.945 318.886 126.319 318.626 126.599 318.292C126.892 317.959 127.105 317.566 127.239 317.112C127.372 316.672 127.439 316.199 127.439 315.692V313.932H127.399C127.039 314.519 126.525 314.972 125.859 315.292C125.205 315.612 124.539 315.772 123.859 315.772C123.125 315.772 122.459 315.652 121.859 315.412C121.272 315.172 120.765 314.846 120.339 314.432C119.925 314.006 119.599 313.499 119.359 312.912C119.132 312.326 119.019 311.692 119.019 311.012C119.019 310.346 119.132 309.719 119.359 309.132C119.599 308.546 119.925 308.032 120.339 307.592C120.765 307.152 121.272 306.806 121.859 306.552C122.459 306.299 123.125 306.172 123.859 306.172C124.539 306.172 125.205 306.332 125.859 306.652C126.512 306.972 127.025 307.432 127.399 308.032H127.439V306.412H128.799V315.692C128.799 316.199 128.725 316.739 128.579 317.312C128.445 317.886 128.185 318.412 127.799 318.892C127.425 319.372 126.912 319.772 126.259 320.092C125.605 320.412 124.759 320.572 123.719 320.572C122.852 320.572 122.025 320.406 121.239 320.072C120.452 319.739 119.779 319.279 119.219 318.692L120.199 317.652ZM120.459 310.972C120.459 311.466 120.539 311.932 120.699 312.372C120.859 312.812 121.085 313.199 121.379 313.532C121.685 313.866 122.059 314.132 122.499 314.332C122.939 314.519 123.439 314.612 123.999 314.612C124.519 314.612 124.999 314.526 125.439 314.352C125.879 314.179 126.259 313.932 126.579 313.612C126.899 313.292 127.145 312.912 127.319 312.472C127.505 312.019 127.599 311.519 127.599 310.972C127.599 310.479 127.505 310.012 127.319 309.572C127.145 309.132 126.899 308.746 126.579 308.412C126.259 308.079 125.879 307.812 125.439 307.612C124.999 307.412 124.519 307.312 123.999 307.312C123.439 307.312 122.939 307.412 122.499 307.612C122.059 307.812 121.685 308.079 121.379 308.412C121.085 308.746 120.859 309.132 120.699 309.572C120.539 310.012 120.459 310.479 120.459 310.972ZM161.815 309.052V314.592H156.195V307.772H162.535V300.932H160.995V306.332H156.195V299.152H154.675V306.332H150.095V300.932H148.615V307.772H154.675V314.592H149.335V309.052H147.855V317.292H149.335V316.052H161.815V317.252H163.335V309.052H161.815ZM184.515 302.872V301.512H175.075C175.375 300.812 175.635 300.092 175.875 299.352L174.395 299.032C173.715 301.372 172.535 303.692 171.095 305.172C171.455 305.352 172.095 305.772 172.375 306.012C173.115 305.172 173.815 304.092 174.435 302.872H184.515ZM171.535 301.412C170.835 300.692 169.375 299.812 168.195 299.252L167.355 300.312C168.535 300.912 169.975 301.872 170.655 302.572L171.535 301.412ZM170.615 306.532C169.895 305.872 168.415 305.052 167.215 304.532L166.395 305.612C167.595 306.172 169.055 307.052 169.735 307.732L170.615 306.532ZM168.175 317.052C169.155 315.172 170.275 312.692 171.115 310.572L169.975 309.732C169.035 312.012 167.755 314.632 166.855 316.192L168.175 317.052ZM178.235 313.172C178.355 312.292 178.495 311.252 178.615 310.132H181.695C181.615 311.372 181.535 312.372 181.435 313.172H178.235ZM177.335 310.132C177.215 311.232 177.075 312.292 176.955 313.172H174.055C174.195 312.232 174.355 311.192 174.495 310.132H177.335ZM177.715 305.972C177.655 306.852 177.575 307.812 177.475 308.772H174.675C174.815 307.812 174.935 306.872 175.035 305.972H177.715ZM178.755 308.772C178.835 307.812 178.935 306.852 178.995 305.972H181.895C181.855 307.012 181.815 307.932 181.775 308.772H178.755ZM184.875 310.132V308.772H183.155C183.195 307.752 183.255 306.632 183.315 305.352C183.315 305.192 183.335 304.672 183.335 304.672H173.815C173.695 305.912 173.515 307.332 173.315 308.772H171.275V310.132H173.115C172.835 312.052 172.535 313.912 172.255 315.252L173.675 315.392L173.835 314.472H181.255C181.115 315.172 180.955 315.572 180.795 315.772C180.615 316.012 180.395 316.052 180.035 316.052C179.655 316.052 178.755 316.052 177.715 315.972C177.955 316.292 178.075 316.832 178.095 317.212C179.075 317.272 180.055 317.292 180.635 317.232C181.235 317.172 181.635 317.032 181.995 316.532C182.275 316.212 182.495 315.592 182.655 314.472H184.755V313.172H182.835C182.915 312.352 182.995 311.352 183.075 310.132H184.875Z" fill="white"/>
<rect x="135.421" y="307" width="6" height="6" fill="#35DDA1"/>
<defs>
<linearGradient id="paint0_linear" x1="110.233" y1="117.314" x2="49.8628" y2="184.877" gradientUnits="userSpaceOnUse">
<stop stop-color="#04B174"/>
<stop offset="0.923" stop-color="#5CFFC5"/>
</linearGradient>
<linearGradient id="paint1_linear" x1="116.263" y1="110.7" x2="225.102" y2="215.161" gradientUnits="userSpaceOnUse">
<stop stop-color="#25F2A9"/>
<stop offset="1" stop-color="#07F7A1"/>
</linearGradient>
</defs>
</svg>
