<svg width="245" height="346" viewBox="0 0 245 346" fill="none" xmlns="http://www.w3.org/2000/svg">
<path fill-rule="evenodd" clip-rule="evenodd" d="M85.1264 104.332C84.0162 102.937 82.2273 102.201 80.4095 102.391C78.5918 102.58 77.0094 103.668 76.237 105.259L31.1933 191.703C30.359 193.305 30.4481 195.207 31.429 196.731C32.4098 198.254 34.1425 199.182 36.0082 199.182H98.7294C100.782 199.228 102.669 198.108 103.544 196.325C117.074 169.49 108.875 128.686 85.1264 104.332Z" fill="url(#paint0_linear)"/>
<path fill-rule="evenodd" clip-rule="evenodd" d="M118.163 25.7072C95.3299 59.4302 92.6946 102.205 111.228 138.276L141.467 196.326C142.378 198.077 144.242 199.182 146.281 199.183H208.991C210.857 199.182 212.59 198.255 213.571 196.732C214.551 195.208 214.641 193.306 213.806 191.704C213.806 191.704 129.44 29.7262 127.32 25.6748C126.465 23.992 124.682 22.9272 122.731 22.9341C120.78 22.941 119.006 24.0184 118.163 25.7072Z" fill="url(#paint1_linear)"/>
<path d="M62.7612 276.903L59.1862 267.868H41.3762L37.9962 276.903H25.9062L45.2112 230.883H56.0012L75.1112 276.903H62.7612ZM50.4112 243.168L44.5612 258.963H56.1312L50.4112 243.168ZM97.3747 254.088C96.508 253.264 95.4897 252.571 94.3197 252.008C93.1497 251.444 91.9147 251.163 90.6147 251.163C89.618 251.163 88.6863 251.358 87.8197 251.748C86.9963 252.138 86.5847 252.809 86.5847 253.763C86.5847 254.673 87.0397 255.323 87.9497 255.713C88.903 256.103 90.4197 256.536 92.4997 257.013C93.713 257.273 94.9263 257.641 96.1397 258.118C97.3963 258.594 98.523 259.223 99.5197 260.003C100.516 260.783 101.318 261.736 101.925 262.863C102.531 263.989 102.835 265.333 102.835 266.893C102.835 268.929 102.423 270.663 101.6 272.093C100.776 273.479 99.693 274.606 98.3497 275.473C97.0497 276.339 95.5763 276.968 93.9297 277.358C92.283 277.748 90.6363 277.943 88.9897 277.943C86.3463 277.943 83.7463 277.531 81.1897 276.708C78.6763 275.841 76.5747 274.584 74.8847 272.938L80.8647 266.633C81.818 267.673 82.988 268.539 84.3747 269.233C85.7613 269.926 87.2347 270.273 88.7947 270.273C89.6613 270.273 90.5063 270.078 91.3297 269.688C92.1963 269.254 92.6297 268.518 92.6297 267.478C92.6297 266.481 92.1097 265.744 91.0697 265.268C90.0297 264.791 88.4047 264.293 86.1947 263.773C85.068 263.513 83.9413 263.166 82.8147 262.733C81.688 262.299 80.6697 261.714 79.7597 260.978C78.893 260.241 78.178 259.331 77.6147 258.248C77.0513 257.164 76.7697 255.864 76.7697 254.348C76.7697 252.398 77.1813 250.751 78.0047 249.408C78.828 248.021 79.8897 246.894 81.1897 246.028C82.4897 245.161 83.9197 244.533 85.4797 244.143C87.083 243.709 88.6647 243.493 90.2247 243.493C92.6513 243.493 95.013 243.883 97.3097 244.663C99.6497 245.399 101.621 246.526 103.225 248.043L97.3747 254.088ZM128.034 254.088C127.167 253.264 126.149 252.571 124.979 252.008C123.809 251.444 122.574 251.163 121.274 251.163C120.277 251.163 119.346 251.358 118.479 251.748C117.656 252.138 117.244 252.809 117.244 253.763C117.244 254.673 117.699 255.323 118.609 255.713C119.562 256.103 121.079 256.536 123.159 257.013C124.372 257.273 125.586 257.641 126.799 258.118C128.056 258.594 129.182 259.223 130.179 260.003C131.176 260.783 131.977 261.736 132.584 262.863C133.191 263.989 133.494 265.333 133.494 266.893C133.494 268.929 133.082 270.663 132.259 272.093C131.436 273.479 130.352 274.606 129.009 275.473C127.709 276.339 126.236 276.968 124.589 277.358C122.942 277.748 121.296 277.943 119.649 277.943C117.006 277.943 114.406 277.531 111.849 276.708C109.336 275.841 107.234 274.584 105.544 272.938L111.524 266.633C112.477 267.673 113.647 268.539 115.034 269.233C116.421 269.926 117.894 270.273 119.454 270.273C120.321 270.273 121.166 270.078 121.989 269.688C122.856 269.254 123.289 268.518 123.289 267.478C123.289 266.481 122.769 265.744 121.729 265.268C120.689 264.791 119.064 264.293 116.854 263.773C115.727 263.513 114.601 263.166 113.474 262.733C112.347 262.299 111.329 261.714 110.419 260.978C109.552 260.241 108.837 259.331 108.274 258.248C107.711 257.164 107.429 255.864 107.429 254.348C107.429 252.398 107.841 250.751 108.664 249.408C109.487 248.021 110.549 246.894 111.849 246.028C113.149 245.161 114.579 244.533 116.139 244.143C117.742 243.709 119.324 243.493 120.884 243.493C123.311 243.493 125.672 243.883 127.969 244.663C130.309 245.399 132.281 246.526 133.884 248.043L128.034 254.088ZM151.218 234.198C151.218 235.021 151.045 235.801 150.698 236.538C150.395 237.231 149.961 237.838 149.398 238.358C148.878 238.878 148.228 239.289 147.448 239.593C146.711 239.896 145.931 240.048 145.108 240.048C143.375 240.048 141.923 239.484 140.753 238.358C139.583 237.188 138.998 235.801 138.998 234.198C138.998 233.418 139.15 232.681 139.453 231.988C139.756 231.251 140.19 230.623 140.753 230.103C141.316 229.583 141.966 229.171 142.703 228.868C143.44 228.521 144.241 228.348 145.108 228.348C145.931 228.348 146.711 228.499 147.448 228.803C148.228 229.106 148.878 229.518 149.398 230.038C149.961 230.558 150.395 231.186 150.698 231.923C151.045 232.616 151.218 233.374 151.218 234.198ZM139.778 276.903V244.533H150.438V276.903H139.778ZM177.926 254.088C177.06 253.264 176.041 252.571 174.871 252.008C173.701 251.444 172.466 251.163 171.166 251.163C170.17 251.163 169.238 251.358 168.371 251.748C167.548 252.138 167.136 252.809 167.136 253.763C167.136 254.673 167.591 255.323 168.501 255.713C169.455 256.103 170.971 256.536 173.051 257.013C174.265 257.273 175.478 257.641 176.691 258.118C177.948 258.594 179.075 259.223 180.071 260.003C181.068 260.783 181.87 261.736 182.476 262.863C183.083 263.989 183.386 265.333 183.386 266.893C183.386 268.929 182.975 270.663 182.151 272.093C181.328 273.479 180.245 274.606 178.901 275.473C177.601 276.339 176.128 276.968 174.481 277.358C172.835 277.748 171.188 277.943 169.541 277.943C166.898 277.943 164.298 277.531 161.741 276.708C159.228 275.841 157.126 274.584 155.436 272.938L161.416 266.633C162.37 267.673 163.54 268.539 164.926 269.233C166.313 269.926 167.786 270.273 169.346 270.273C170.213 270.273 171.058 270.078 171.881 269.688C172.748 269.254 173.181 268.518 173.181 267.478C173.181 266.481 172.661 265.744 171.621 265.268C170.581 264.791 168.956 264.293 166.746 263.773C165.62 263.513 164.493 263.166 163.366 262.733C162.24 262.299 161.221 261.714 160.311 260.978C159.445 260.241 158.73 259.331 158.166 258.248C157.603 257.164 157.321 255.864 157.321 254.348C157.321 252.398 157.733 250.751 158.556 249.408C159.38 248.021 160.441 246.894 161.741 246.028C163.041 245.161 164.471 244.533 166.031 244.143C167.635 243.709 169.216 243.493 170.776 243.493C173.203 243.493 175.565 243.883 177.861 244.663C180.201 245.399 182.173 246.526 183.776 248.043L177.926 254.088ZM201.111 252.528V264.878C201.111 266.394 201.392 267.543 201.956 268.323C202.562 269.059 203.624 269.428 205.141 269.428C205.661 269.428 206.202 269.384 206.766 269.298C207.372 269.211 207.871 269.081 208.261 268.908L208.391 276.708C207.654 276.968 206.722 277.184 205.596 277.358C204.469 277.574 203.342 277.683 202.216 277.683C200.049 277.683 198.229 277.423 196.756 276.903C195.282 276.339 194.091 275.559 193.181 274.563C192.314 273.523 191.686 272.309 191.296 270.923C190.906 269.493 190.711 267.911 190.711 266.178V252.528H185.511V244.533H190.646V236.018H201.111V244.533H208.716V252.528H201.111Z" fill="white"/>
<path d="M72.2239 303.402H73.6639V309.542H81.3839V303.402H82.8239V317.562H81.3839V310.862H73.6639V317.562H72.2239V303.402ZM87.8793 317.562H86.5193V308.202H87.8793V317.562ZM88.1593 304.602C88.1593 304.882 88.0593 305.115 87.8593 305.302C87.6593 305.475 87.4393 305.562 87.1993 305.562C86.9593 305.562 86.7393 305.475 86.5393 305.302C86.3393 305.115 86.2393 304.882 86.2393 304.602C86.2393 304.322 86.3393 304.095 86.5393 303.922C86.7393 303.735 86.9593 303.642 87.1993 303.642C87.4393 303.642 87.6593 303.735 87.8593 303.922C88.0593 304.095 88.1593 304.322 88.1593 304.602ZM91.9993 319.442C92.3727 319.922 92.8793 320.329 93.5193 320.662C94.1727 320.995 94.8593 321.162 95.5793 321.162C96.246 321.162 96.8127 321.062 97.2793 320.862C97.746 320.675 98.1193 320.415 98.3993 320.082C98.6927 319.749 98.906 319.355 99.0393 318.902C99.1727 318.462 99.2393 317.989 99.2393 317.482V315.722H99.1993C98.8393 316.309 98.326 316.762 97.6593 317.082C97.006 317.402 96.3393 317.562 95.6593 317.562C94.926 317.562 94.2593 317.442 93.6593 317.202C93.0727 316.962 92.566 316.635 92.1393 316.222C91.726 315.795 91.3993 315.289 91.1593 314.702C90.9327 314.115 90.8193 313.482 90.8193 312.802C90.8193 312.135 90.9327 311.509 91.1593 310.922C91.3993 310.335 91.726 309.822 92.1393 309.382C92.566 308.942 93.0727 308.595 93.6593 308.342C94.2593 308.089 94.926 307.962 95.6593 307.962C96.3393 307.962 97.006 308.122 97.6593 308.442C98.3127 308.762 98.826 309.222 99.1993 309.822H99.2393V308.202H100.599V317.482C100.599 317.989 100.526 318.529 100.379 319.102C100.246 319.675 99.986 320.202 99.5993 320.682C99.226 321.162 98.7127 321.562 98.0593 321.882C97.406 322.202 96.5593 322.362 95.5193 322.362C94.6527 322.362 93.826 322.195 93.0393 321.862C92.2527 321.529 91.5793 321.069 91.0193 320.482L91.9993 319.442ZM92.2593 312.762C92.2593 313.255 92.3393 313.722 92.4993 314.162C92.6593 314.602 92.886 314.989 93.1793 315.322C93.486 315.655 93.8593 315.922 94.2993 316.122C94.7393 316.309 95.2393 316.402 95.7993 316.402C96.3193 316.402 96.7993 316.315 97.2393 316.142C97.6793 315.969 98.0593 315.722 98.3793 315.402C98.6993 315.082 98.946 314.702 99.1193 314.262C99.306 313.809 99.3993 313.309 99.3993 312.762C99.3993 312.269 99.306 311.802 99.1193 311.362C98.946 310.922 98.6993 310.535 98.3793 310.202C98.0593 309.869 97.6793 309.602 97.2393 309.402C96.7993 309.202 96.3193 309.102 95.7993 309.102C95.2393 309.102 94.7393 309.202 94.2993 309.402C93.8593 309.602 93.486 309.869 93.1793 310.202C92.886 310.535 92.6593 310.922 92.4993 311.362C92.3393 311.802 92.2593 312.269 92.2593 312.762ZM105.576 309.742C105.829 309.195 106.249 308.762 106.836 308.442C107.423 308.122 108.049 307.962 108.716 307.962C109.903 307.962 110.789 308.315 111.376 309.022C111.976 309.729 112.276 310.662 112.276 311.822V317.562H110.916V312.382C110.916 311.889 110.876 311.442 110.796 311.042C110.716 310.642 110.576 310.302 110.376 310.022C110.189 309.729 109.929 309.502 109.596 309.342C109.276 309.182 108.869 309.102 108.376 309.102C108.016 309.102 107.663 309.175 107.316 309.322C106.983 309.469 106.683 309.695 106.416 310.002C106.149 310.295 105.936 310.675 105.776 311.142C105.616 311.595 105.536 312.135 105.536 312.762V317.562H104.176V302.442H105.536V309.742H105.576ZM119.436 313.282H114.956V312.142H119.436V313.282ZM128.908 305.682C128.601 305.255 128.208 304.915 127.728 304.662C127.248 304.395 126.668 304.262 125.988 304.262C125.641 304.262 125.288 304.315 124.928 304.422C124.568 304.529 124.241 304.695 123.948 304.922C123.655 305.135 123.415 305.409 123.228 305.742C123.055 306.075 122.968 306.469 122.968 306.922C122.968 307.375 123.055 307.749 123.228 308.042C123.401 308.335 123.628 308.589 123.908 308.802C124.201 309.002 124.528 309.169 124.888 309.302C125.261 309.435 125.648 309.569 126.048 309.702C126.541 309.862 127.035 310.035 127.528 310.222C128.035 310.409 128.488 310.655 128.888 310.962C129.288 311.255 129.615 311.635 129.868 312.102C130.121 312.555 130.248 313.135 130.248 313.842C130.248 314.549 130.108 315.162 129.828 315.682C129.561 316.189 129.208 316.609 128.768 316.942C128.341 317.275 127.848 317.522 127.288 317.682C126.741 317.842 126.188 317.922 125.628 317.922C125.201 317.922 124.775 317.875 124.348 317.782C123.921 317.702 123.515 317.575 123.128 317.402C122.741 317.229 122.381 317.009 122.048 316.742C121.715 316.475 121.421 316.169 121.168 315.822L122.408 314.902C122.715 315.409 123.141 315.835 123.688 316.182C124.248 316.515 124.901 316.682 125.648 316.682C126.008 316.682 126.375 316.629 126.748 316.522C127.121 316.402 127.455 316.229 127.748 316.002C128.055 315.762 128.301 315.475 128.488 315.142C128.688 314.795 128.788 314.395 128.788 313.942C128.788 313.449 128.688 313.042 128.488 312.722C128.301 312.389 128.048 312.115 127.728 311.902C127.408 311.675 127.041 311.489 126.628 311.342C126.215 311.195 125.781 311.049 125.328 310.902C124.861 310.755 124.401 310.589 123.948 310.402C123.495 310.215 123.088 309.975 122.728 309.682C122.368 309.375 122.075 309.002 121.848 308.562C121.635 308.122 121.528 307.582 121.528 306.942C121.528 306.262 121.661 305.675 121.928 305.182C122.208 304.689 122.568 304.282 123.008 303.962C123.448 303.642 123.935 303.409 124.468 303.262C125.001 303.115 125.528 303.042 126.048 303.042C127.008 303.042 127.828 303.215 128.508 303.562C129.188 303.895 129.701 304.295 130.048 304.762L128.908 305.682ZM134.617 322.362H133.257V308.202H134.617V309.822H134.677C135.064 309.209 135.577 308.749 136.217 308.442C136.87 308.122 137.53 307.962 138.197 307.962C138.93 307.962 139.59 308.089 140.177 308.342C140.777 308.595 141.284 308.942 141.697 309.382C142.124 309.822 142.45 310.342 142.677 310.942C142.917 311.542 143.037 312.189 143.037 312.882C143.037 313.575 142.917 314.222 142.677 314.822C142.45 315.422 142.124 315.942 141.697 316.382C141.284 316.822 140.777 317.169 140.177 317.422C139.59 317.675 138.93 317.802 138.197 317.802C137.53 317.802 136.87 317.649 136.217 317.342C135.577 317.022 135.064 316.569 134.677 315.982H134.617V322.362ZM141.597 312.882C141.597 312.362 141.517 311.875 141.357 311.422C141.197 310.955 140.964 310.555 140.657 310.222C140.364 309.875 139.997 309.602 139.557 309.402C139.117 309.202 138.617 309.102 138.057 309.102C137.537 309.102 137.057 309.202 136.617 309.402C136.177 309.589 135.797 309.855 135.477 310.202C135.157 310.535 134.904 310.935 134.717 311.402C134.544 311.855 134.457 312.349 134.457 312.882C134.457 313.415 134.544 313.915 134.717 314.382C134.904 314.835 135.157 315.229 135.477 315.562C135.797 315.895 136.177 316.162 136.617 316.362C137.057 316.549 137.537 316.642 138.057 316.642C138.617 316.642 139.117 316.549 139.557 316.362C139.997 316.162 140.364 315.895 140.657 315.562C140.964 315.215 141.197 314.815 141.357 314.362C141.517 313.895 141.597 313.402 141.597 312.882ZM153.092 312.162C153.052 311.282 152.766 310.555 152.232 309.982C151.712 309.395 150.966 309.102 149.992 309.102C149.539 309.102 149.119 309.189 148.732 309.362C148.346 309.522 148.006 309.749 147.712 310.042C147.419 310.322 147.186 310.649 147.012 311.022C146.839 311.382 146.739 311.762 146.712 312.162H153.092ZM154.472 312.602C154.472 312.695 154.472 312.795 154.472 312.902C154.472 313.009 154.466 313.122 154.452 313.242H146.692C146.706 313.709 146.799 314.149 146.972 314.562C147.146 314.975 147.386 315.335 147.692 315.642C147.999 315.949 148.359 316.195 148.772 316.382C149.186 316.555 149.632 316.642 150.112 316.642C150.819 316.642 151.426 316.482 151.932 316.162C152.452 315.829 152.846 315.449 153.112 315.022L154.132 315.822C153.572 316.529 152.952 317.035 152.272 317.342C151.606 317.649 150.886 317.802 150.112 317.802C149.419 317.802 148.772 317.682 148.172 317.442C147.586 317.189 147.079 316.842 146.652 316.402C146.226 315.962 145.886 315.442 145.632 314.842C145.392 314.242 145.272 313.589 145.272 312.882C145.272 312.175 145.392 311.522 145.632 310.922C145.872 310.322 146.206 309.802 146.632 309.362C147.059 308.922 147.559 308.582 148.132 308.342C148.706 308.089 149.326 307.962 149.992 307.962C150.726 307.962 151.372 308.089 151.932 308.342C152.492 308.582 152.959 308.915 153.332 309.342C153.706 309.755 153.986 310.242 154.172 310.802C154.372 311.362 154.472 311.962 154.472 312.602ZM164.538 312.162C164.498 311.282 164.211 310.555 163.678 309.982C163.158 309.395 162.411 309.102 161.438 309.102C160.984 309.102 160.564 309.189 160.178 309.362C159.791 309.522 159.451 309.749 159.158 310.042C158.864 310.322 158.631 310.649 158.458 311.022C158.284 311.382 158.184 311.762 158.158 312.162H164.538ZM165.918 312.602C165.918 312.695 165.918 312.795 165.918 312.902C165.918 313.009 165.911 313.122 165.898 313.242H158.138C158.151 313.709 158.244 314.149 158.418 314.562C158.591 314.975 158.831 315.335 159.138 315.642C159.444 315.949 159.804 316.195 160.218 316.382C160.631 316.555 161.078 316.642 161.558 316.642C162.264 316.642 162.871 316.482 163.378 316.162C163.898 315.829 164.291 315.449 164.558 315.022L165.578 315.822C165.018 316.529 164.398 317.035 163.718 317.342C163.051 317.649 162.331 317.802 161.558 317.802C160.864 317.802 160.218 317.682 159.618 317.442C159.031 317.189 158.524 316.842 158.098 316.402C157.671 315.962 157.331 315.442 157.078 314.842C156.838 314.242 156.718 313.589 156.718 312.882C156.718 312.175 156.838 311.522 157.078 310.922C157.318 310.322 157.651 309.802 158.078 309.362C158.504 308.922 159.004 308.582 159.578 308.342C160.151 308.089 160.771 307.962 161.438 307.962C162.171 307.962 162.818 308.089 163.378 308.342C163.938 308.582 164.404 308.915 164.778 309.342C165.151 309.755 165.431 310.242 165.618 310.802C165.818 311.362 165.918 311.962 165.918 312.602ZM176.543 315.982C176.143 316.582 175.623 317.035 174.983 317.342C174.343 317.649 173.683 317.802 173.003 317.802C172.27 317.802 171.603 317.675 171.003 317.422C170.416 317.169 169.91 316.822 169.483 316.382C169.07 315.942 168.743 315.422 168.503 314.822C168.276 314.222 168.163 313.575 168.163 312.882C168.163 312.189 168.276 311.542 168.503 310.942C168.743 310.342 169.07 309.822 169.483 309.382C169.91 308.942 170.416 308.595 171.003 308.342C171.603 308.089 172.27 307.962 173.003 307.962C173.683 307.962 174.343 308.122 174.983 308.442C175.623 308.749 176.143 309.209 176.543 309.822H176.583V302.442H177.943V317.562H176.583V315.982H176.543ZM169.603 312.882C169.603 313.402 169.683 313.895 169.843 314.362C170.003 314.815 170.23 315.215 170.523 315.562C170.83 315.895 171.203 316.162 171.643 316.362C172.083 316.549 172.583 316.642 173.143 316.642C173.663 316.642 174.143 316.549 174.583 316.362C175.023 316.162 175.403 315.895 175.723 315.562C176.043 315.229 176.29 314.835 176.463 314.382C176.65 313.915 176.743 313.415 176.743 312.882C176.743 312.349 176.65 311.855 176.463 311.402C176.29 310.935 176.043 310.535 175.723 310.202C175.403 309.855 175.023 309.589 174.583 309.402C174.143 309.202 173.663 309.102 173.143 309.102C172.583 309.102 172.083 309.202 171.643 309.402C171.203 309.602 170.83 309.875 170.523 310.222C170.23 310.555 170.003 310.955 169.843 311.422C169.683 311.875 169.603 312.362 169.603 312.882Z" fill="white"/>
<defs>
<linearGradient id="paint0_linear" x1="109.812" y1="117.673" x2="49.4419" y2="185.235" gradientUnits="userSpaceOnUse">
<stop stop-color="#04B174"/>
<stop offset="0.923" stop-color="#5CFFC5"/>
</linearGradient>
<linearGradient id="paint1_linear" x1="115.842" y1="111.058" x2="224.682" y2="215.519" gradientUnits="userSpaceOnUse">
<stop stop-color="#25F2A9"/>
<stop offset="1" stop-color="#07F7A1"/>
</linearGradient>
</defs>
</svg>
