<svg width="527" height="122" viewBox="0 0 527 122" fill="none" xmlns="http://www.w3.org/2000/svg">
<path fill-rule="evenodd" clip-rule="evenodd" d="M44.7002 53.8794C44.1292 53.1622 43.2092 52.7836 42.2744 52.8811C41.3395 52.9786 40.5257 53.538 40.1285 54.3561L16.9632 98.8133C16.5341 99.6371 16.5799 100.615 17.0844 101.399C17.5888 102.182 18.4799 102.659 19.4394 102.659H51.696C52.7515 102.683 53.7223 102.107 54.1723 101.19C61.1304 87.389 56.9135 66.4045 44.7002 53.8794Z" fill="url(#paint0_linear)"/>
<path fill-rule="evenodd" clip-rule="evenodd" d="M61.6905 13.4438C49.9477 30.787 48.5923 52.7857 58.1238 71.3365L73.675 101.19C74.144 102.091 75.1026 102.66 76.1513 102.66H108.402C109.362 102.66 110.253 102.183 110.757 101.399C111.262 100.616 111.307 99.6374 110.878 98.8136C110.878 98.8136 67.4902 15.5107 66.3998 13.4271C65.9598 12.5617 65.0429 12.014 64.0397 12.0176C63.0365 12.0211 62.1238 12.5752 61.6905 13.4438Z" fill="url(#paint1_linear)"/>
<path d="M150.386 92.7444C150.386 94.0878 150.126 95.3011 149.606 96.3844C149.086 97.4244 148.371 98.3128 147.461 99.0494C146.594 99.7861 145.576 100.349 144.406 100.739C143.236 101.129 141.979 101.324 140.636 101.324C138.426 101.324 136.411 100.913 134.591 100.089C132.814 99.2228 131.341 97.9661 130.171 96.3194L131.341 95.5394C133.508 98.5728 136.628 100.089 140.701 100.089C141.654 100.089 142.608 99.9378 143.561 99.6344C144.558 99.3311 145.446 98.8761 146.226 98.2694C147.049 97.6628 147.699 96.9044 148.176 95.9944C148.696 95.0844 148.956 94.0444 148.956 92.8744C148.956 91.4878 148.631 90.3611 147.981 89.4944C147.374 88.6278 146.594 87.9344 145.641 87.4144C144.688 86.8944 143.626 86.4828 142.456 86.1794C141.329 85.8328 140.268 85.5294 139.271 85.2694C138.188 84.9661 137.169 84.6411 136.216 84.2944C135.263 83.9044 134.418 83.4278 133.681 82.8644C132.988 82.2578 132.424 81.5211 131.991 80.6544C131.601 79.7878 131.406 78.7044 131.406 77.4044C131.406 76.1044 131.666 74.9778 132.186 74.0244C132.706 73.0711 133.399 72.2911 134.266 71.6844C135.133 71.0344 136.108 70.5578 137.191 70.2544C138.318 69.9078 139.444 69.7344 140.571 69.7344C144.644 69.7344 147.699 71.1861 149.736 74.0894L148.501 74.8044C147.504 73.5044 146.378 72.5511 145.121 71.9444C143.864 71.2944 142.348 70.9694 140.571 70.9694C139.748 70.9694 138.881 71.0778 137.971 71.2944C137.061 71.5111 136.216 71.8794 135.436 72.3994C134.699 72.8761 134.071 73.5261 133.551 74.3494C133.074 75.1728 132.836 76.1694 132.836 77.3394C132.836 78.6394 133.031 79.6794 133.421 80.4594C133.854 81.2394 134.439 81.8678 135.176 82.3444C135.913 82.8211 136.801 83.2328 137.841 83.5794C138.881 83.8828 140.029 84.1861 141.286 84.4894C142.456 84.7928 143.583 85.1611 144.666 85.5944C145.793 85.9844 146.768 86.4828 147.591 87.0894C148.458 87.6961 149.129 88.4544 149.606 89.3644C150.126 90.2744 150.386 91.4011 150.386 92.7444ZM177.363 92.7444C177.363 94.0878 177.103 95.3011 176.583 96.3844C176.063 97.4244 175.348 98.3128 174.438 99.0494C173.572 99.7861 172.553 100.349 171.383 100.739C170.213 101.129 168.957 101.324 167.613 101.324C165.403 101.324 163.388 100.913 161.568 100.089C159.792 99.2228 158.318 97.9661 157.148 96.3194L158.318 95.5394C160.485 98.5728 163.605 100.089 167.678 100.089C168.632 100.089 169.585 99.9378 170.538 99.6344C171.535 99.3311 172.423 98.8761 173.203 98.2694C174.027 97.6628 174.677 96.9044 175.153 95.9944C175.673 95.0844 175.933 94.0444 175.933 92.8744C175.933 91.4878 175.608 90.3611 174.958 89.4944C174.352 88.6278 173.572 87.9344 172.618 87.4144C171.665 86.8944 170.603 86.4828 169.433 86.1794C168.307 85.8328 167.245 85.5294 166.248 85.2694C165.165 84.9661 164.147 84.6411 163.193 84.2944C162.24 83.9044 161.395 83.4278 160.658 82.8644C159.965 82.2578 159.402 81.5211 158.968 80.6544C158.578 79.7878 158.383 78.7044 158.383 77.4044C158.383 76.1044 158.643 74.9778 159.163 74.0244C159.683 73.0711 160.377 72.2911 161.243 71.6844C162.11 71.0344 163.085 70.5578 164.168 70.2544C165.295 69.9078 166.422 69.7344 167.548 69.7344C171.622 69.7344 174.677 71.1861 176.713 74.0894L175.478 74.8044C174.482 73.5044 173.355 72.5511 172.098 71.9444C170.842 71.2944 169.325 70.9694 167.548 70.9694C166.725 70.9694 165.858 71.0778 164.948 71.2944C164.038 71.5111 163.193 71.8794 162.413 72.3994C161.677 72.8761 161.048 73.5261 160.528 74.3494C160.052 75.1728 159.813 76.1694 159.813 77.3394C159.813 78.6394 160.008 79.6794 160.398 80.4594C160.832 81.2394 161.417 81.8678 162.153 82.3444C162.89 82.8211 163.778 83.2328 164.818 83.5794C165.858 83.8828 167.007 84.1861 168.263 84.4894C169.433 84.7928 170.56 85.1611 171.643 85.5944C172.77 85.9844 173.745 86.4828 174.568 87.0894C175.435 87.6961 176.107 88.4544 176.583 89.3644C177.103 90.2744 177.363 91.4011 177.363 92.7444ZM188.221 59.3994C187.831 59.3994 187.484 59.2478 187.181 58.9444C186.878 58.6411 186.726 58.2294 186.726 57.7094C186.726 57.2328 186.878 56.8428 187.181 56.5394C187.484 56.2361 187.831 56.0844 188.221 56.0844C188.611 56.0844 188.958 56.2361 189.261 56.5394C189.564 56.8428 189.716 57.2328 189.716 57.7094C189.716 58.2294 189.543 58.6411 189.196 58.9444C188.893 59.2478 188.568 59.3994 188.221 59.3994ZM187.506 100.544V70.6444H188.936V100.544H187.506ZM219.004 92.7444C219.004 94.0878 218.744 95.3011 218.224 96.3844C217.704 97.4244 216.989 98.3128 216.079 99.0494C215.212 99.7861 214.194 100.349 213.024 100.739C211.854 101.129 210.597 101.324 209.254 101.324C207.044 101.324 205.029 100.913 203.209 100.089C201.432 99.2228 199.959 97.9661 198.789 96.3194L199.959 95.5394C202.126 98.5728 205.246 100.089 209.319 100.089C210.272 100.089 211.226 99.9378 212.179 99.6344C213.176 99.3311 214.064 98.8761 214.844 98.2694C215.667 97.6628 216.317 96.9044 216.794 95.9944C217.314 95.0844 217.574 94.0444 217.574 92.8744C217.574 91.4878 217.249 90.3611 216.599 89.4944C215.992 88.6278 215.212 87.9344 214.259 87.4144C213.306 86.8944 212.244 86.4828 211.074 86.1794C209.947 85.8328 208.886 85.5294 207.889 85.2694C206.806 84.9661 205.787 84.6411 204.834 84.2944C203.881 83.9044 203.036 83.4278 202.299 82.8644C201.606 82.2578 201.042 81.5211 200.609 80.6544C200.219 79.7878 200.024 78.7044 200.024 77.4044C200.024 76.1044 200.284 74.9778 200.804 74.0244C201.324 73.0711 202.017 72.2911 202.884 71.6844C203.751 71.0344 204.726 70.5578 205.809 70.2544C206.936 69.9078 208.062 69.7344 209.189 69.7344C213.262 69.7344 216.317 71.1861 218.354 74.0894L217.119 74.8044C216.122 73.5044 214.996 72.5511 213.739 71.9444C212.482 71.2944 210.966 70.9694 209.189 70.9694C208.366 70.9694 207.499 71.0778 206.589 71.2944C205.679 71.5111 204.834 71.8794 204.054 72.3994C203.317 72.8761 202.689 73.5261 202.169 74.3494C201.692 75.1728 201.454 76.1694 201.454 77.3394C201.454 78.6394 201.649 79.6794 202.039 80.4594C202.472 81.2394 203.057 81.8678 203.794 82.3444C204.531 82.8211 205.419 83.2328 206.459 83.5794C207.499 83.8828 208.647 84.1861 209.904 84.4894C211.074 84.7928 212.201 85.1611 213.284 85.5944C214.411 85.9844 215.386 86.4828 216.209 87.0894C217.076 87.6961 217.747 88.4544 218.224 89.3644C218.744 90.2744 219.004 91.4011 219.004 92.7444ZM240.717 100.609C240.197 100.826 239.59 100.999 238.897 101.129C238.203 101.259 237.532 101.324 236.882 101.324C234.542 101.324 232.852 100.674 231.812 99.3744C230.815 98.0311 230.317 96.3628 230.317 94.3694V71.8794H223.817V70.6444H230.252V61.8694H231.747V70.6444H240.522V71.8794H231.747V94.3694C231.747 96.4061 232.245 97.8794 233.242 98.7894C234.238 99.6561 235.56 100.089 237.207 100.089C238.42 100.089 239.525 99.8944 240.522 99.5044L240.717 100.609ZM298.223 92.7444C298.223 94.0878 297.963 95.3011 297.443 96.3844C296.923 97.4244 296.208 98.3128 295.298 99.0494C294.431 99.7861 293.413 100.349 292.243 100.739C291.073 101.129 289.816 101.324 288.473 101.324C286.263 101.324 284.248 100.913 282.428 100.089C280.651 99.2228 279.178 97.9661 278.008 96.3194L279.178 95.5394C281.344 98.5728 284.464 100.089 288.538 100.089C289.491 100.089 290.444 99.9378 291.398 99.6344C292.394 99.3311 293.283 98.8761 294.063 98.2694C294.886 97.6628 295.536 96.9044 296.013 95.9944C296.533 95.0844 296.793 94.0444 296.793 92.8744C296.793 91.4878 296.468 90.3611 295.818 89.4944C295.211 88.6278 294.431 87.9344 293.478 87.4144C292.524 86.8944 291.463 86.4828 290.293 86.1794C289.166 85.8328 288.104 85.5294 287.108 85.2694C286.024 84.9661 285.006 84.6411 284.053 84.2944C283.099 83.9044 282.254 83.4278 281.518 82.8644C280.824 82.2578 280.261 81.5211 279.828 80.6544C279.438 79.7878 279.243 78.7044 279.243 77.4044C279.243 76.1044 279.503 74.9778 280.023 74.0244C280.543 73.0711 281.236 72.2911 282.103 71.6844C282.969 71.0344 283.944 70.5578 285.028 70.2544C286.154 69.9078 287.281 69.7344 288.408 69.7344C292.481 69.7344 295.536 71.1861 297.573 74.0894L296.338 74.8044C295.341 73.5044 294.214 72.5511 292.958 71.9444C291.701 71.2944 290.184 70.9694 288.408 70.9694C287.584 70.9694 286.718 71.0778 285.808 71.2944C284.898 71.5111 284.053 71.8794 283.273 72.3994C282.536 72.8761 281.908 73.5261 281.388 74.3494C280.911 75.1728 280.673 76.1694 280.673 77.3394C280.673 78.6394 280.868 79.6794 281.258 80.4594C281.691 81.2394 282.276 81.8678 283.013 82.3444C283.749 82.8211 284.638 83.2328 285.678 83.5794C286.718 83.8828 287.866 84.1861 289.123 84.4894C290.293 84.7928 291.419 85.1611 292.503 85.5944C293.629 85.9844 294.604 86.4828 295.428 87.0894C296.294 87.6961 296.966 88.4544 297.443 89.3644C297.963 90.2744 298.223 91.4011 298.223 92.7444ZM337.03 85.5294C337.03 87.8694 336.64 90.0144 335.86 91.9644C335.124 93.9144 334.062 95.6044 332.675 97.0344C331.289 98.4211 329.62 99.5044 327.67 100.284C325.764 101.064 323.662 101.454 321.365 101.454C319.069 101.454 316.967 101.064 315.06 100.284C313.154 99.5044 311.507 98.4211 310.12 97.0344C308.734 95.6044 307.65 93.9144 306.87 91.9644C306.134 90.0144 305.765 87.8694 305.765 85.5294C305.765 83.1894 306.134 81.0661 306.87 79.1594C307.65 77.2094 308.734 75.5411 310.12 74.1544C311.507 72.7678 313.154 71.6844 315.06 70.9044C316.967 70.1244 319.069 69.7344 321.365 69.7344C323.662 69.7344 325.764 70.1244 327.67 70.9044C329.62 71.6844 331.289 72.7678 332.675 74.1544C334.062 75.5411 335.124 77.2094 335.86 79.1594C336.64 81.0661 337.03 83.1894 337.03 85.5294ZM335.6 85.5294C335.6 83.5361 335.275 81.6511 334.625 79.8744C333.975 78.0978 333.022 76.5594 331.765 75.2594C330.552 73.9161 329.057 72.8761 327.28 72.1394C325.547 71.3594 323.575 70.9694 321.365 70.9694C319.155 70.9694 317.184 71.3594 315.45 72.1394C313.717 72.8761 312.222 73.9161 310.965 75.2594C309.752 76.5594 308.82 78.0978 308.17 79.8744C307.52 81.6511 307.195 83.5361 307.195 85.5294C307.195 87.5661 307.52 89.4728 308.17 91.2494C308.82 93.0261 309.752 94.5861 310.965 95.9294C312.222 97.2294 313.717 98.2694 315.45 99.0494C317.184 99.8294 319.155 100.219 321.365 100.219C323.575 100.219 325.547 99.8294 327.28 99.0494C329.057 98.2694 330.552 97.2294 331.765 95.9294C333.022 94.5861 333.975 93.0261 334.625 91.2494C335.275 89.4728 335.6 87.5661 335.6 85.5294ZM369.821 92.6794C369.344 94.0661 368.694 95.3228 367.871 96.4494C367.091 97.5328 366.181 98.4428 365.141 99.1794C364.101 99.9161 362.974 100.479 361.761 100.869C360.547 101.259 359.291 101.454 357.991 101.454C355.911 101.454 354.177 101.086 352.791 100.349C351.404 99.6128 350.299 98.6378 349.476 97.4244C348.652 96.2111 348.067 94.8461 347.721 93.3294C347.374 91.8128 347.201 90.2744 347.201 88.7144V70.6444H348.631V88.5844C348.631 89.8411 348.761 91.1628 349.021 92.5494C349.281 93.8928 349.757 95.1278 350.451 96.2544C351.187 97.3811 352.141 98.3344 353.311 99.1144C354.524 99.8511 356.084 100.219 357.991 100.219C359.637 100.219 361.176 99.8944 362.606 99.2444C364.079 98.5511 365.336 97.5761 366.376 96.3194C367.459 95.0628 368.304 93.5461 368.911 91.7694C369.561 89.9494 369.886 87.8911 369.886 85.5944V70.6444H371.316V93.0044C371.316 93.4811 371.316 94.0661 371.316 94.7594C371.359 95.4528 371.381 96.1678 371.381 96.9044C371.424 97.5978 371.467 98.2694 371.511 98.9194C371.554 99.5694 371.597 100.111 371.641 100.544H370.211C370.167 100.111 370.124 99.5694 370.081 98.9194C370.081 98.2694 370.059 97.5761 370.016 96.8394C370.016 96.0594 369.994 95.3228 369.951 94.6294C369.951 93.8928 369.951 93.2428 369.951 92.6794H369.821ZM386.608 78.5094C387.475 75.3894 388.861 73.1578 390.768 71.8144C392.675 70.4278 394.733 69.7344 396.943 69.7344C397.16 69.7344 397.355 69.7344 397.528 69.7344C397.701 69.7344 397.896 69.7561 398.113 69.7994V71.0344C397.94 70.9911 397.766 70.9694 397.593 70.9694C397.463 70.9694 397.355 70.9694 397.268 70.9694C395.361 70.9694 393.736 71.4028 392.393 72.2694C391.05 73.0928 389.945 74.1978 389.078 75.5844C388.211 76.9278 387.561 78.4444 387.128 80.1344C386.738 81.7811 386.543 83.4278 386.543 85.0744V100.544H385.113V78.1844C385.113 77.7078 385.091 77.1228 385.048 76.4294C385.048 75.7361 385.026 75.0428 384.983 74.3494C384.983 73.6128 384.961 72.9194 384.918 72.2694C384.875 71.6194 384.831 71.0778 384.788 70.6444H386.218C386.261 71.0778 386.283 71.6194 386.283 72.2694C386.326 72.9194 386.348 73.6344 386.348 74.4144C386.391 75.1511 386.413 75.8878 386.413 76.6244C386.456 77.3178 386.478 77.9461 386.478 78.5094H386.608ZM425.725 74.6744C424.599 73.5044 423.277 72.5944 421.76 71.9444C420.244 71.2944 418.662 70.9694 417.015 70.9694C414.892 70.9694 412.985 71.3811 411.295 72.2044C409.605 72.9844 408.154 74.0461 406.94 75.3894C405.77 76.7328 404.86 78.2928 404.21 80.0694C403.56 81.8461 403.235 83.7094 403.235 85.6594C403.235 87.6094 403.56 89.4728 404.21 91.2494C404.86 93.0261 405.77 94.5861 406.94 95.9294C408.154 97.2294 409.605 98.2694 411.295 99.0494C412.985 99.8294 414.892 100.219 417.015 100.219C418.662 100.219 420.265 99.9378 421.825 99.3744C423.429 98.8111 424.815 97.9661 425.985 96.8394L426.96 97.7494C425.66 99.0494 424.122 99.9811 422.345 100.544C420.612 101.151 418.835 101.454 417.015 101.454C414.805 101.454 412.769 101.064 410.905 100.284C409.085 99.5044 407.482 98.4211 406.095 97.0344C404.752 95.6478 403.69 93.9794 402.91 92.0294C402.174 90.0794 401.805 87.9561 401.805 85.6594C401.805 83.3628 402.174 81.2394 402.91 79.2894C403.69 77.3394 404.752 75.6711 406.095 74.2844C407.482 72.8544 409.085 71.7494 410.905 70.9694C412.769 70.1461 414.805 69.7344 417.015 69.7344C418.922 69.7344 420.72 70.0811 422.41 70.7744C424.144 71.4678 425.617 72.4428 426.83 73.6994L425.725 74.6744ZM436.351 59.3994C435.961 59.3994 435.614 59.2478 435.311 58.9444C435.008 58.6411 434.856 58.2294 434.856 57.7094C434.856 57.2328 435.008 56.8428 435.311 56.5394C435.614 56.2361 435.961 56.0844 436.351 56.0844C436.741 56.0844 437.088 56.2361 437.391 56.5394C437.694 56.8428 437.846 57.2328 437.846 57.7094C437.846 58.2294 437.673 58.6411 437.326 58.9444C437.023 59.2478 436.698 59.3994 436.351 59.3994ZM435.636 100.544V70.6444H437.066V100.544H435.636ZM451.989 78.5094C452.422 77.1228 453.051 75.8878 453.874 74.8044C454.697 73.7211 455.629 72.8111 456.669 72.0744C457.709 71.2944 458.836 70.7094 460.049 70.3194C461.262 69.9294 462.519 69.7344 463.819 69.7344C465.899 69.7344 467.632 70.1028 469.019 70.8394C470.406 71.5761 471.511 72.5511 472.334 73.7644C473.157 74.9778 473.742 76.3428 474.089 77.8594C474.436 79.3761 474.609 80.9144 474.609 82.4744V100.544H473.179V82.6044C473.179 81.3911 473.049 80.0911 472.789 78.7044C472.529 77.3178 472.031 76.0611 471.294 74.9344C470.601 73.8078 469.647 72.8761 468.434 72.1394C467.221 71.3594 465.682 70.9694 463.819 70.9694C462.172 70.9694 460.612 71.3161 459.139 72.0094C457.709 72.6594 456.452 73.6128 455.369 74.8694C454.329 76.1261 453.484 77.6644 452.834 79.4844C452.227 81.2611 451.924 83.2978 451.924 85.5944V100.544H450.494V78.1844C450.494 77.7078 450.472 77.1228 450.429 76.4294C450.429 75.7361 450.407 75.0428 450.364 74.3494C450.364 73.6128 450.342 72.9194 450.299 72.2694C450.256 71.6194 450.212 71.0778 450.169 70.6444H451.599C451.642 71.0778 451.664 71.6194 451.664 72.2694C451.707 72.9194 451.729 73.6344 451.729 74.4144C451.772 75.1511 451.794 75.8878 451.794 76.6244C451.837 77.3178 451.859 77.9461 451.859 78.5094H451.989ZM513.496 92.4844H513.301C512.738 93.9578 511.98 95.2578 511.026 96.3844C510.073 97.4678 509.011 98.3994 507.841 99.1794C506.671 99.9161 505.393 100.479 504.006 100.869C502.663 101.259 501.276 101.454 499.846 101.454C497.68 101.454 495.665 101.064 493.801 100.284C491.981 99.4611 490.4 98.3561 489.056 96.9694C487.756 95.5394 486.738 93.8711 486.001 91.9644C485.265 90.0144 484.896 87.9128 484.896 85.6594C484.896 83.4061 485.265 81.3044 486.001 79.3544C486.738 77.4044 487.756 75.7144 489.056 74.2844C490.4 72.8544 491.981 71.7494 493.801 70.9694C495.665 70.1461 497.68 69.7344 499.846 69.7344C502.706 69.7344 505.328 70.4928 507.711 72.0094C510.138 73.5261 512.001 75.7794 513.301 78.7694H513.496V70.6444H514.926V98.8544C514.926 101.238 514.666 103.513 514.146 105.679C513.67 107.846 512.846 109.753 511.676 111.399C510.55 113.046 509.033 114.346 507.126 115.299C505.263 116.296 502.945 116.794 500.171 116.794C497.355 116.794 494.841 116.296 492.631 115.299C490.421 114.346 488.536 112.981 486.976 111.204L487.951 110.229C489.598 112.093 491.461 113.436 493.541 114.259C495.665 115.126 497.875 115.559 500.171 115.559C502.771 115.559 504.938 115.083 506.671 114.129C508.405 113.176 509.77 111.919 510.766 110.359C511.763 108.799 512.456 107.001 512.846 104.964C513.28 102.971 513.496 100.891 513.496 98.7244V92.4844ZM486.326 85.6594C486.326 87.6094 486.63 89.4728 487.236 91.2494C487.886 93.0261 488.796 94.5861 489.966 95.9294C491.136 97.2728 492.545 98.3344 494.191 99.1144C495.881 99.8944 497.766 100.284 499.846 100.284C501.84 100.284 503.66 99.8944 505.306 99.1144C506.996 98.3344 508.448 97.2728 509.661 95.9294C510.875 94.5861 511.828 93.0261 512.521 91.2494C513.215 89.4728 513.561 87.5878 513.561 85.5944C513.561 83.6011 513.215 81.7161 512.521 79.9394C511.828 78.1628 510.875 76.6244 509.661 75.3244C508.448 73.9811 506.996 72.9194 505.306 72.1394C503.66 71.3594 501.84 70.9694 499.846 70.9694C497.766 70.9694 495.881 71.3811 494.191 72.2044C492.545 72.9844 491.136 74.0461 489.966 75.3894C488.796 76.7328 487.886 78.2928 487.236 80.0694C486.63 81.8461 486.326 83.7094 486.326 85.6594Z" fill="white"/>
<rect x="253.421" y="81.0444" width="12" height="12" rx="0.05" fill="url(#paint2_linear)"/>
<defs>
<linearGradient id="paint0_linear" x1="57.3957" y1="60.7403" x2="26.3482" y2="95.4868" gradientUnits="userSpaceOnUse">
<stop stop-color="#04B174"/>
<stop offset="0.923" stop-color="#5CFFC5"/>
</linearGradient>
<linearGradient id="paint1_linear" x1="60.4966" y1="57.3386" x2="116.471" y2="111.061" gradientUnits="userSpaceOnUse">
<stop stop-color="#25F2A9"/>
<stop offset="1" stop-color="#07F7A1"/>
</linearGradient>
<linearGradient id="paint2_linear" x1="267.921" y1="89.5444" x2="256.171" y2="83.0444" gradientUnits="userSpaceOnUse">
<stop stop-color="#20E9BC"/>
<stop offset="1" stop-color="#17C285"/>
</linearGradient>
</defs>
</svg>
