<svg width="424" height="151" viewBox="0 0 424 151" fill="none" xmlns="http://www.w3.org/2000/svg">
<rect x="225.074" y="5.44775" width="197.983" height="45.5088" fill="#25F2A9"/>
<path d="M41.8442 34.9565H42.1442C44.2442 34.9565 46.1442 35.0565 47.6442 35.2065V29.6565C46.0442 29.8565 44.6442 29.9565 42.2942 29.9565L32.7942 30.0065C32.5942 26.4565 32.4942 23.6565 32.4942 21.0565C32.4942 18.1565 32.5442 17.6565 32.8442 16.5565H26.8942C27.0942 17.5565 27.0942 17.8565 27.1442 18.9565C27.1942 19.9065 27.2942 22.3065 27.4442 26.1565C27.4942 27.7565 27.5442 28.4565 27.6442 30.0565L17.6442 30.1065V23.0565C19.2442 22.6565 20.2442 22.3565 22.5942 21.6065C23.8942 21.2065 24.6442 20.9565 25.2442 20.8565L22.4942 15.9565C21.2442 16.7065 20.4442 17.0565 18.4942 17.7065C13.6942 19.2565 8.69419 20.2065 2.79419 20.7565C3.74419 22.4065 4.24419 23.5565 4.74419 25.5565C8.19419 25.1065 10.2942 24.7565 12.3442 24.3065V30.1065L8.29419 30.1565H7.84419C5.49419 30.1565 3.89419 30.0565 2.49419 29.9065V35.4565C4.09419 35.2565 5.74419 35.1565 8.29419 35.1065H12.3442V42.1565C7.74419 43.0065 4.14419 43.5065 2.69419 43.5065C2.59419 43.5065 2.44419 43.5065 2.29419 43.5065L3.29419 49.2065C4.19419 48.9065 4.74419 48.8065 6.49419 48.5065C7.94419 48.2565 9.44419 47.9565 12.3442 47.4065V54.9565C12.3442 55.9565 12.0442 56.1565 10.6442 56.1565C9.04419 56.1565 7.84419 56.0565 6.14419 55.8065C5.89419 55.7565 5.49419 55.7065 4.94419 55.6065C5.84419 57.8565 6.04419 58.9065 6.24419 61.1565C7.99419 61.2565 9.94419 61.3565 11.0442 61.3565C13.4442 61.3565 14.9942 61.1065 15.9942 60.5565C17.2442 59.8565 17.6442 58.7565 17.6442 56.2065V46.2565C19.6942 45.7565 21.0442 45.4065 25.6942 44.1065L25.5442 39.1565C21.3442 40.3065 20.0442 40.6565 17.6442 41.1565V35.0565L28.0442 35.0065C28.6442 40.4065 29.6942 45.1065 31.0942 48.5065C27.5942 51.5565 23.9942 53.6065 18.7942 55.6065C20.4942 57.3565 21.2442 58.4065 22.2442 60.3565C26.6942 58.3065 29.8942 56.2565 33.3942 53.3065C36.4442 58.6565 39.6442 61.5065 42.6442 61.5065C44.2942 61.5065 45.4942 60.7565 46.3442 59.0565C47.0942 57.5065 47.5942 55.5565 48.2942 51.4065C46.3942 50.4565 45.8442 50.0565 43.7442 48.1065C43.2942 52.9065 42.7442 55.1065 41.9442 55.1065C40.9942 55.1065 39.0442 52.7065 37.3942 49.5565C39.6942 47.0565 41.1442 45.1065 43.2942 41.7065C43.9942 40.5565 44.3942 39.9065 44.9942 39.1065L40.1942 36.2565C39.3942 38.6065 37.5442 41.5565 35.0942 44.4565C34.1442 41.6065 33.5442 38.4565 33.1942 35.0065L41.8442 34.9565ZM34.4442 19.9565C37.3942 22.9565 38.2942 24.1065 41.4942 28.8565L45.4942 25.5065C43.3942 22.3565 41.4442 20.0565 38.2942 17.1565L34.4442 19.9565ZM61.5442 28.3565C62.3942 26.0565 63.2942 23.1565 64.2442 19.8065C64.4442 19.1065 64.5442 18.8565 64.8442 17.9565L59.5442 16.1565C59.3942 17.6565 59.0942 19.1565 58.4442 21.3065C56.6442 27.4065 54.3942 31.7065 50.6942 36.3565C52.0442 38.3565 52.3442 39.1065 53.1442 42.1565C54.8942 39.9065 55.6942 38.6565 56.6442 36.7065C56.4942 38.6065 56.4942 39.0565 56.4942 41.9065V55.5565C56.4942 58.0565 56.3942 59.7565 56.1942 61.9065H61.7942C61.5942 60.3065 61.5442 58.8065 61.5442 55.6565V28.3565ZM78.5942 24.0065C80.8942 23.7565 82.3942 23.6565 83.1442 23.6565H91.1442V55.1065C91.1442 56.2065 90.8942 56.3565 89.3442 56.3565C87.8442 56.3565 86.3942 56.2565 83.9942 55.9065C84.7442 57.6565 84.9942 58.6565 85.3442 61.3565C87.2442 61.4565 88.6442 61.5065 89.4442 61.5065C94.9942 61.5065 96.4942 60.3565 96.4942 56.1065V24.1565C96.4942 20.6065 96.4942 20.0065 96.6942 18.3065C95.0942 18.5065 93.9442 18.5565 92.3442 18.5565H83.3442C81.5442 18.5565 80.1442 18.5065 78.5942 18.3065V24.0065ZM71.5942 61.9065C71.3942 60.9565 71.3442 59.7565 71.3442 56.0565V32.3565C71.3442 30.2065 71.3942 28.3065 71.5442 26.5565H65.8442C65.9442 28.7065 65.9942 29.9065 65.9942 32.3565V55.7065C65.9942 58.1565 65.9442 59.9565 65.7442 61.9065H71.5942ZM77.9442 25.3065C75.5942 20.8065 74.5442 19.0065 72.2942 15.9565L67.9442 18.1565C70.7942 22.5565 71.4442 23.7065 73.2442 27.8565L77.9442 25.3065ZM106.844 62.1065C110.194 58.6565 111.244 57.2065 113.444 52.8065L108.844 50.5065C106.894 54.3065 105.944 55.4565 102.294 58.6065L106.844 62.1065ZM122.544 61.3065C122.344 56.7565 122.194 55.6065 121.394 51.8565L116.394 52.3565C116.994 55.9065 117.094 56.9065 117.094 61.7565L122.544 61.3065ZM134.294 60.5565C133.194 55.9065 132.894 55.0065 131.344 51.5065L126.394 52.5565C127.794 55.9565 128.294 57.7565 128.944 61.8065L134.294 60.5565ZM147.844 59.1065C145.444 55.3565 144.594 54.2565 140.844 50.1565L136.394 52.3065C139.444 56.0065 140.644 57.8065 142.794 61.9565L147.844 59.1065ZM111.194 27.4565V33.6565C109.594 33.7565 108.044 33.9065 106.544 34.0065L103.494 34.0565L104.044 39.7565C104.594 39.6065 104.994 39.5565 105.844 39.4565C106.194 39.4065 106.444 39.4065 106.494 39.4065C106.694 39.3565 106.694 39.3565 106.894 39.3565C108.744 39.1065 109.394 39.0065 111.194 38.8065V42.3565C111.194 43.7065 110.544 44.5065 109.544 44.5065H109.244C108.144 44.5065 106.294 44.3065 104.844 44.0065C105.444 45.8565 105.644 46.9065 105.894 49.5065C108.444 49.7065 109.344 49.7565 110.094 49.7565C114.644 49.7565 116.094 48.4565 116.094 44.4565V38.2065C118.394 37.8565 119.194 37.7565 120.844 37.4065L120.894 32.2565C118.594 32.6565 117.694 32.8065 116.094 33.0565V27.4565H117.344C118.294 27.4565 118.944 27.5065 120.094 27.6065C120.644 27.7065 120.644 27.7065 120.894 27.7065V22.1065C119.794 22.3565 119.094 22.4065 117.294 22.4065H116.094C116.094 18.9065 116.144 17.2565 116.344 15.8565H110.944C111.094 17.2065 111.194 19.0565 111.194 22.4065H108.294C106.044 22.4065 105.194 22.3565 103.994 22.0565V27.8565C105.644 27.5565 106.844 27.4565 108.294 27.4565H111.194ZM138.294 42.5065C135.694 40.0065 134.694 39.1065 132.794 37.4565C133.394 35.0565 133.694 32.5065 133.894 27.8565H138.094C138.144 34.9565 138.494 39.5065 139.344 43.4065C140.394 48.3065 142.244 51.0065 144.544 51.0065C145.894 51.0065 146.994 50.1065 147.744 48.3065C148.394 46.7065 148.794 44.6565 149.294 40.4565C147.694 39.6065 146.694 38.8065 145.744 37.5565L145.694 38.4565L145.594 40.0565C145.444 41.9065 145.194 43.7065 144.994 44.1565C144.944 44.3065 144.894 44.3565 144.844 44.3565C144.494 44.3565 144.194 43.5065 143.894 41.5565C143.344 38.0565 143.144 34.4565 143.144 27.4565C143.144 24.9065 143.194 24.1065 143.394 22.5565C142.194 22.7565 141.244 22.8065 139.144 22.8065H134.094C134.194 17.3565 134.194 17.3565 134.394 16.0065H128.794C128.994 17.2565 129.094 18.6565 129.094 20.1065C129.094 21.2565 129.094 22.3065 129.044 22.8065H125.794C124.194 22.8065 123.444 22.7565 122.494 22.5565V28.0065C123.994 27.8565 124.494 27.8565 125.744 27.8565H128.844C128.744 31.0065 128.644 32.5065 128.294 34.4565C126.344 32.9065 125.744 32.4065 123.944 31.0565L120.994 35.1065C123.094 36.7565 123.894 37.3565 126.394 39.4565C124.694 42.4565 122.294 44.8065 118.844 46.7565C120.544 48.2565 121.144 48.9065 122.594 50.8565C126.544 48.1565 128.544 46.0565 130.594 42.5565C131.044 43.0565 131.294 43.3065 131.994 43.9565C133.294 45.2565 133.744 45.7565 134.994 47.3065L138.294 42.5065ZM197.044 37.4065C196.844 35.9565 196.794 35.1565 196.794 33.7065V31.5565C196.794 29.6065 196.844 28.6065 196.994 27.3565C195.394 27.5065 194.344 27.5565 191.544 27.5565H187.544L189.644 24.2565C190.444 23.0565 190.894 22.2565 191.094 21.9565L187.394 21.0565C188.944 20.9065 190.244 20.7065 195.394 19.9065L191.744 15.2065C189.094 15.9565 187.594 16.2565 184.794 16.6565C178.844 17.4565 166.994 18.1565 159.244 18.1565C157.044 18.1565 155.794 18.1565 154.144 18.1065C155.294 20.1565 155.644 20.9565 156.044 22.7565L160.094 22.7065C160.744 23.9065 161.494 26.0065 161.794 27.5565H158.694C155.844 27.5565 154.844 27.5065 153.194 27.3065C153.344 28.7065 153.394 29.8065 153.394 31.5565V33.5565C153.394 34.6065 153.344 35.7565 153.144 37.4565H156.944V40.8065C158.644 40.6565 160.644 40.5565 164.744 40.5565C163.944 43.7565 162.544 47.0565 161.044 49.4565C158.894 52.7565 156.644 54.9065 152.444 57.7065C154.344 59.2065 154.894 59.8065 156.194 61.8565C161.544 57.7065 163.694 55.1565 166.744 49.5065C169.694 52.2565 170.944 53.1565 173.844 54.9065C169.594 56.3065 166.744 56.9065 161.744 57.3565C162.944 58.9565 163.394 59.9065 164.094 62.0065C171.094 60.7565 174.394 59.8065 179.194 57.6065C184.544 59.8065 187.644 60.7065 194.894 61.9565C195.794 59.5565 196.344 58.5565 197.544 57.0065C191.894 56.5065 188.644 55.9565 184.194 54.7065C186.344 53.2065 188.444 51.5065 190.044 49.9565C191.344 48.6565 192.244 47.8565 192.744 47.3565L189.594 43.8065C188.694 43.9565 187.694 44.0065 185.394 44.0065H169.044C169.544 42.2565 169.544 42.2565 169.794 41.1565L169.944 40.5565H187.644C190.394 40.5565 191.644 40.6065 193.394 40.8065V37.4565L197.044 37.4065ZM166.894 27.5565C166.494 25.8565 165.844 23.9565 165.094 22.5565C165.694 22.5565 165.694 22.5565 165.844 22.5065C166.244 22.5065 166.344 22.5065 166.494 22.5065C167.744 22.4565 167.894 22.4565 168.094 22.4565C168.544 22.4065 168.794 22.4065 168.894 22.4065C169.944 22.4065 170.544 22.4065 171.444 22.3565C172.044 23.6065 172.644 25.5065 173.044 27.5565H166.894ZM178.194 27.5565C178.044 27.1065 177.994 26.8565 177.694 25.8065C177.144 23.7065 176.844 22.9065 176.494 22.1065C179.794 21.9065 182.344 21.6565 185.244 21.3065C184.444 23.3065 183.194 25.9065 182.244 27.5565H178.194ZM184.994 48.3065C182.494 50.5065 181.544 51.2065 178.944 52.7065C175.744 51.2065 174.294 50.2565 171.894 48.3065H184.994ZM165.744 33.7065C165.744 33.9065 165.744 34.0065 165.744 34.1065C165.744 34.6565 165.644 35.5565 165.544 36.1565H164.944C161.694 36.1565 159.944 36.1065 158.444 36.0565V32.1565H191.694V36.1065C190.744 36.1565 190.094 36.1565 187.644 36.1565H170.794C171.094 34.6565 171.244 33.8565 171.294 33.7065H165.744ZM208.044 19.4565C205.694 19.4565 204.194 19.3565 202.594 19.1565V24.2065C204.244 24.0065 205.494 23.9565 207.744 23.9565H242.244C244.544 23.9565 245.794 24.0065 247.444 24.2065V19.1565C245.844 19.3565 244.444 19.4565 242.194 19.4565H227.844C227.194 17.7065 226.744 16.7565 225.794 15.0565L220.094 16.8065C220.844 18.0565 221.044 18.4565 221.594 19.4565H208.044ZM210.194 33.6565C210.194 35.3565 210.144 36.3065 210.044 37.3565C211.494 37.2065 212.794 37.1565 214.744 37.1565H235.444C237.644 37.1565 238.794 37.2065 240.144 37.3565C240.044 36.1565 239.994 35.6065 239.994 33.6565V29.3565C239.994 27.7565 240.044 27.0065 240.144 25.7065C238.744 25.8565 237.694 25.9065 235.694 25.9065H214.894C212.694 25.9065 211.494 25.8565 210.044 25.7065C210.144 26.9065 210.194 27.7565 210.194 29.3565V33.6565ZM215.394 29.9565H234.744V33.0065H215.394V29.9565ZM203.994 56.7065C203.994 59.2065 203.894 61.1065 203.694 62.2065H209.794C209.544 60.4565 209.494 59.2565 209.494 56.7065V43.4065H240.594V55.8565C240.594 56.7065 240.344 56.9065 239.294 56.9065C238.044 56.9065 236.044 56.7565 233.294 56.4565C233.994 58.0565 234.244 59.2065 234.394 61.4565C235.194 61.4565 235.194 61.4565 235.994 61.5065C237.494 61.6065 237.694 61.6065 238.844 61.6065C242.444 61.6065 243.894 61.3065 244.894 60.4065C245.844 59.5565 246.094 58.6065 246.094 56.1065V43.3565C246.094 41.5565 246.144 40.4065 246.294 38.8565C244.994 39.0065 243.794 39.0565 241.344 39.0565H209.044C206.844 39.0565 205.394 39.0065 203.794 38.8565C203.944 40.4065 203.994 41.7065 203.994 43.4065V56.7065ZM235.694 48.4565C235.694 46.9065 235.744 46.2065 235.844 45.2065C234.344 45.3065 233.644 45.3565 231.744 45.3565H218.044C216.194 45.3565 215.144 45.3065 213.994 45.2065C214.094 46.2065 214.144 47.0565 214.144 48.4565V52.6565C214.144 54.0565 214.094 55.0565 213.994 56.0065C215.644 55.9065 216.544 55.8565 218.144 55.8565H231.694C232.994 55.8565 234.894 55.9065 235.844 56.0065C235.744 55.1065 235.694 54.1065 235.694 52.6565V48.4565ZM219.094 49.1565H230.894V51.9065H219.094V49.1565ZM298.194 23.3565C296.944 23.6065 295.744 23.6565 293.394 23.6565H285.094C285.394 22.6065 285.544 21.9565 285.644 21.5565C286.494 17.4565 286.494 17.4565 286.944 16.3565L281.094 15.4565C281.044 17.0565 280.694 19.4565 280.044 22.1065C278.944 26.8065 277.144 31.1565 274.944 34.4565C272.344 29.9565 272.144 29.6565 270.794 27.6065L266.594 29.8065C268.194 32.2565 269.844 35.1065 271.044 37.3065L266.844 35.7565C266.394 37.9065 265.744 39.8565 264.944 41.8065C262.994 39.9065 261.644 38.6065 260.844 37.8565L257.394 41.5565C259.794 43.8565 260.844 44.9065 262.044 46.2065C262.194 46.3565 262.244 46.4065 262.344 46.5065C259.544 50.8565 256.644 53.6565 251.544 56.9065C253.044 58.4565 253.694 59.4065 254.744 61.6565C259.844 58.0565 262.444 55.3565 265.844 50.5065C267.744 52.8065 268.444 53.6565 270.244 56.1065L274.144 52.0065C271.194 48.4565 271.194 48.4565 268.644 45.6565C269.494 43.9065 269.894 42.9065 270.994 39.9565C271.294 39.1065 271.444 38.7065 271.594 38.3565C271.894 38.9065 272.044 39.2565 272.444 40.0565L274.944 38.4065C275.644 39.3065 275.944 39.7565 276.894 41.1065C278.044 39.4065 278.694 38.5065 278.994 37.9565C280.294 42.2565 281.344 44.9065 283.094 48.1565C279.944 52.0565 276.194 54.8565 270.844 57.2065C272.294 58.8565 273.144 60.1565 274.044 62.1065C279.444 59.2065 282.894 56.5565 286.144 52.7565C288.944 56.3565 291.644 58.8065 296.094 61.8065C296.894 59.6065 297.594 58.4065 299.194 56.6065C294.744 54.1565 292.044 51.9565 289.244 48.4565C290.794 45.8565 292.144 42.8065 293.044 39.7565C293.994 36.4065 294.244 35.0565 294.794 28.7065C297.094 28.7565 297.094 28.7565 298.194 28.9565V23.3565ZM289.544 28.7065C288.994 35.5565 288.094 39.2565 286.094 43.3565C284.494 39.8565 283.194 35.6565 282.394 31.4565C282.894 30.3065 283.144 29.8065 283.544 28.7065H289.544ZM257.694 22.0565C255.594 22.0565 254.394 22.0065 252.794 21.7565V27.1065C254.294 26.9565 255.744 26.8565 257.494 26.8565H271.744C273.894 26.8565 274.744 26.9065 276.144 27.0065V21.8065C274.744 22.0065 273.494 22.0565 271.194 22.0565H267.794C266.994 19.4565 266.344 18.1065 264.644 15.5565L259.894 17.3065C260.894 18.9065 261.294 19.7565 262.194 22.0565H257.694ZM258.194 27.5065C256.594 32.2065 255.294 34.2565 251.844 37.5065C253.344 39.1065 253.844 39.7565 254.994 41.9065C258.744 37.9565 260.544 35.0565 262.894 29.3565L258.194 27.5065ZM314.444 23.2065C315.494 20.9065 315.994 19.6565 316.994 16.7065L311.244 15.9065C310.744 18.5565 310.144 20.7065 309.094 23.2065H305.844C305.444 23.2065 304.344 23.1065 303.694 23.0565C303.844 24.3565 303.894 25.5065 303.894 28.1565V54.1565C303.894 57.2565 303.844 59.1065 303.644 60.6065H309.094V56.2065H316.194V59.2065H321.544C321.394 57.8065 321.344 56.1065 321.344 54.2565V35.0565C322.394 36.0565 322.794 36.5565 323.494 37.5565C326.444 34.2065 328.194 31.6065 329.894 28.1565H341.494C341.344 41.9065 340.694 51.3565 339.644 54.4565C339.194 55.9065 338.444 56.3065 336.294 56.3065C334.644 56.3065 333.144 56.1565 329.894 55.6065C330.744 57.6565 331.094 59.0565 331.294 61.3065C333.644 61.4565 334.894 61.5065 336.094 61.5065C343.994 61.5065 345.244 59.7065 346.194 46.9565C346.394 44.4065 346.844 32.8565 346.944 26.6565C346.994 24.0065 346.994 24.0065 347.144 22.7065C346.144 22.8565 344.944 22.9065 342.894 22.9065H332.244C332.694 21.6065 333.494 19.4565 333.694 18.7065C333.994 17.7065 334.094 17.4565 334.394 16.7565L328.644 15.8065C327.894 20.6565 324.594 27.7565 321.344 31.5565V27.3565C321.344 24.7065 321.344 24.7065 321.394 24.5565C321.444 23.4565 321.444 23.4565 321.494 23.0565C320.894 23.1065 319.444 23.1565 317.194 23.2065H314.444ZM309.044 28.0565H316.194V36.9065H309.044V28.0565ZM309.044 41.7565H316.194V51.4065H309.044V41.7565ZM337.644 46.4065C335.244 41.0565 333.694 38.3065 330.694 34.0065L326.144 36.4565C328.494 39.5565 330.944 44.3565 332.594 49.1565L337.644 46.4065ZM13.9942 94.6565H8.39419C5.94419 94.6565 4.34419 94.5565 2.59419 94.3565V99.3565C4.14419 99.1565 5.39419 99.1065 8.39419 99.1065H13.9942V99.3565C13.9942 100.207 13.9442 100.557 13.7942 101.507H19.3442C19.2942 101.257 19.2942 101.157 19.2942 101.007C19.1942 100.357 19.1942 100.057 19.1942 99.2565V99.1065H30.2442V99.4065C30.2442 100.107 30.1942 100.557 30.1442 101.157C30.0942 101.357 30.0942 101.357 30.0942 101.507H35.6442C35.4942 100.507 35.4442 100.157 35.4442 99.3065V99.1065H41.6442C44.6442 99.1065 45.8942 99.1565 47.4442 99.3565V94.3565C45.7442 94.5565 44.1442 94.6565 41.6442 94.6565H35.4442V93.6065C35.4442 92.4565 35.4942 91.8065 35.6942 90.9065H29.9942C30.1942 91.8565 30.2442 92.5565 30.2442 93.6065V94.6565H19.1942V93.6065C19.1942 92.5065 19.2442 91.8565 19.4442 90.9065H13.7442C13.9442 91.8065 13.9942 92.5065 13.9942 93.6065V94.6565ZM29.3942 102.857H9.54419C9.14419 102.857 8.99419 102.857 8.54419 102.857C4.04419 102.757 3.69419 102.757 3.04419 102.707C3.19419 103.857 3.24419 104.707 3.24419 106.457V108.457C3.24419 110.007 3.19419 110.757 3.04419 111.957H8.44419V107.307H41.4942V111.957H46.9942C46.7942 111.057 46.7442 110.207 46.7442 108.457V106.457C46.7442 104.657 46.7942 103.757 46.9442 102.707C45.9442 102.757 45.4442 102.807 44.8442 102.807L29.3942 102.857ZM6.69419 132.357C6.69419 134.407 6.64419 135.507 6.44419 136.707H11.8942V135.207H38.3442V136.757H43.8942C43.6942 135.607 43.6442 134.807 43.6442 132.407V127.557C43.6442 125.307 43.6942 124.307 43.8442 123.257C42.5942 123.407 41.5442 123.457 39.0942 123.457H11.1442C8.89419 123.457 7.84419 123.407 6.49419 123.257C6.64419 124.657 6.69419 125.557 6.69419 127.507V132.357ZM11.8942 127.757H38.3942V130.907H11.8942V127.757ZM40.1442 113.207C40.1442 111.507 40.1442 111.157 40.2942 110.007C38.8942 110.157 38.2942 110.157 36.6442 110.157H13.4942C11.7942 110.157 11.2942 110.157 10.0442 110.007C10.1442 111.107 10.1942 111.857 10.1942 113.107V116.907C10.1942 118.507 10.1442 119.257 10.0442 120.707C11.5942 120.557 12.6942 120.507 14.6942 120.507H35.6442C37.6942 120.507 38.8942 120.557 40.2942 120.707C40.1442 119.407 40.1442 118.757 40.1442 116.907V113.207ZM15.2942 113.907H34.9942V116.757H15.2942V113.907ZM58.9942 128.907C58.8442 130.257 58.5442 130.857 57.4942 131.657L59.4442 136.357C60.5942 135.857 60.5942 135.857 61.5442 135.357C63.1442 134.557 63.2442 134.507 64.6442 133.857C65.4442 133.457 66.0942 133.157 66.4942 132.957C67.9942 132.257 67.9942 132.257 68.9942 131.757V126.407C66.9942 127.457 65.9442 128.007 63.8942 128.907V120.157H65.2942C66.5442 120.157 68.5442 120.257 69.4442 120.357V115.007C68.7442 115.107 67.9942 115.157 66.1442 115.207C65.9442 115.207 65.7942 115.257 65.6942 115.257C65.4942 115.257 65.3442 115.257 65.2942 115.257H63.8942V109.657H66.0942C67.8942 109.657 68.4442 109.657 69.0942 109.807V104.807C68.1942 104.907 67.3942 104.957 65.1942 104.957H56.7942C57.7442 103.657 58.7942 101.957 59.1442 101.157H62.6942C66.5442 101.157 67.6942 101.207 68.8942 101.307V96.1565C67.5442 96.3065 65.6942 96.3565 61.4942 96.3565C61.6442 96.1565 61.6442 96.0565 61.7942 95.7565C62.7442 93.5565 62.7442 93.5565 62.8442 93.3565C62.9442 93.1565 62.9442 93.1565 62.9942 93.0065C63.0442 92.9065 63.0942 92.8565 63.1942 92.7065L57.7942 91.1065C57.4942 93.0065 56.8942 94.5565 55.4442 97.1565C54.0942 99.6565 52.9442 101.307 51.2942 103.107C52.5942 104.757 53.4442 106.607 53.8942 108.557C54.4442 108.057 54.9942 107.457 55.2442 107.057C55.2442 107.007 55.2942 106.957 55.2942 106.957C55.2442 108.157 55.2442 108.557 55.2442 109.807C55.7442 109.707 56.5942 109.657 56.9942 109.657H58.9942V115.307H56.5942C54.2442 115.307 53.6442 115.257 52.6442 115.107V120.457C54.1942 120.257 55.2942 120.157 56.5442 120.157H58.9942V128.907ZM80.1942 105.307H75.2442C73.1942 105.307 71.9442 105.257 70.6442 105.107C70.7942 106.407 70.8442 107.707 70.8442 109.707V131.307C70.8442 133.507 70.7442 135.157 70.5442 137.157H76.4942C76.2942 134.957 76.1942 133.357 76.1942 131.307V126.357H90.1442V130.807C90.1442 131.757 89.7942 132.007 88.4942 132.007C87.1942 132.007 85.7442 131.857 83.4442 131.507C84.2442 133.657 84.4942 134.707 84.6442 136.707C86.3442 136.857 88.2442 136.957 89.2942 136.957C91.6442 136.957 93.4942 136.557 94.3442 135.807C95.1942 135.107 95.5442 134.007 95.5442 132.107V110.357C95.5442 107.857 95.5942 106.607 95.7442 105.107C94.5942 105.257 93.2942 105.307 90.9942 105.307H85.7442V96.3565C85.7442 94.1065 85.8442 92.5065 86.0442 90.9565H79.8942C80.0942 92.6565 80.1942 94.1565 80.1942 96.3565V105.307ZM76.1942 118.207H90.1442V121.957H76.1942V118.207ZM90.1442 113.807H76.1942V110.007H90.1442V113.807ZM92.6942 92.5065C90.8442 97.4065 89.7942 99.4065 87.5942 102.407L91.9442 104.807C94.0442 101.657 95.4942 99.0065 97.3942 95.0065L92.6942 92.5065ZM78.2442 102.357C76.5442 98.3565 75.5942 96.4565 73.1942 92.5565L68.5442 94.8065C70.8942 98.2565 71.8442 100.107 73.5442 104.657L78.2442 102.357ZM108.944 98.2565C106.344 98.2565 104.494 98.1565 102.694 97.9065V103.957C104.394 103.757 106.444 103.657 108.944 103.657H117.144C117.094 106.657 116.994 107.857 116.794 109.707C116.044 116.207 114.244 120.757 110.894 124.807C108.494 127.707 106.344 129.457 101.944 132.207C103.794 133.657 104.744 134.757 105.994 136.957C115.394 130.757 119.944 124.357 122.044 114.307H135.844C135.594 120.607 135.344 123.907 134.744 126.907C134.044 130.357 133.594 130.907 131.344 130.907C129.094 130.907 126.744 130.707 123.894 130.207C124.694 132.057 125.144 133.707 125.294 136.007C128.744 136.257 130.294 136.357 132.044 136.357C137.094 136.357 138.694 135.107 139.844 130.357C140.744 126.757 141.394 120.157 141.594 112.807C141.644 110.707 141.694 110.107 141.794 109.307C141.794 109.207 141.844 109.057 141.844 108.807C140.644 109.007 139.294 109.057 136.644 109.057H122.794C122.994 107.407 122.994 107.407 123.244 103.657H141.544C144.494 103.657 146.094 103.757 147.644 103.957V97.9065C145.944 98.1565 144.094 98.2565 141.344 98.2565H129.244C128.444 95.8565 127.194 93.1565 125.594 90.4565L119.694 92.4065C121.094 94.6565 121.694 95.7565 122.744 98.2565H108.944ZM191.494 104.607C193.994 104.607 195.944 104.707 197.344 104.907V99.3065C196.094 99.5565 194.844 99.6065 192.494 99.6065H190.394L194.444 97.3065C192.244 94.4565 191.644 93.8065 189.494 91.6565L185.144 93.7065C187.344 95.9065 188.594 97.4565 189.894 99.6065H183.994C183.944 98.6065 183.944 96.9565 183.944 95.6065C183.944 94.1065 183.994 92.8565 184.144 91.6065H178.094C178.244 92.5065 178.394 94.3565 178.394 95.5065C178.394 96.3065 178.394 96.8565 178.444 97.2565C178.494 98.6065 178.494 98.7565 178.544 99.6065H158.744C156.294 99.6065 154.444 99.5065 152.894 99.3065V104.907C154.744 104.707 156.544 104.607 158.744 104.607H178.744C178.844 106.007 178.844 106.557 178.894 107.607C178.944 107.857 178.944 108.207 178.944 108.357C179.094 110.757 179.444 113.757 179.944 116.507C181.044 122.907 182.944 128.007 185.494 131.557C187.694 134.507 190.244 136.407 192.144 136.407C193.794 136.407 195.244 135.257 196.244 133.157C197.244 131.057 197.794 128.957 198.444 124.907C196.644 124.107 195.794 123.607 193.694 122.107C193.044 127.207 192.494 129.707 191.894 129.707C191.694 129.707 191.344 129.457 190.694 128.807C189.644 127.757 188.694 126.157 187.694 123.857C185.694 119.257 184.744 113.957 184.194 104.607H191.494ZM168.544 115.607H171.994C173.894 115.607 175.544 115.707 176.994 115.857V110.557C175.744 110.707 174.144 110.807 171.944 110.807H159.844C157.644 110.807 155.944 110.707 154.694 110.557V115.857C156.094 115.707 157.844 115.607 159.744 115.607H163.044V127.957C158.694 128.657 155.044 129.107 153.144 129.107H152.994L153.894 134.757C154.744 134.607 155.294 134.507 155.744 134.407C162.444 133.407 170.344 131.807 178.794 129.757V124.657C174.644 125.657 170.744 126.557 168.544 126.957V115.607Z" fill="#1D293F"/>
<rect x="279.727" y="101.448" width="15" height="15" fill="#25F2A9"/>
</svg>
